<svg width="40" height="40" viewBox="0 0 40 40" fill="none" xmlns="http://www.w3.org/2000/svg">
<circle cx="20" cy="20" r="20" fill="white"/>
<g clip-path="url(#clip0_175_3665)">
<path d="M26.0058 19.7897C25.9807 16.9981 28.2858 15.6579 28.3875 15.5958C27.0922 13.6991 25.0726 13.4347 24.3562 13.403C22.6366 13.2299 21.0003 14.4168 20.1306 14.4168C19.2609 14.4168 17.9127 13.4321 16.4906 13.4598C14.6137 13.4849 12.8901 14.5503 11.9239 16.2223C9.97833 19.598 11.4243 24.6021 13.3237 27.3394C14.2489 28.6797 15.3525 30.1851 16.8025 30.131C18.2022 30.0768 18.7309 29.2282 20.4201 29.2282C22.1093 29.2282 22.5838 30.131 24.0628 30.1085C25.5656 30.0768 26.5186 28.7365 27.4359 27.3963C28.4986 25.8406 28.94 24.3351 28.9651 24.2558C28.9321 24.2439 26.0335 23.131 26.0044 19.7897H26.0058Z" fill="black"/>
<path d="M23.2261 11.5909C23.998 10.6591 24.5174 9.36117 24.3747 8.06982C23.2657 8.11212 21.9215 8.81132 21.1271 9.73918C20.4121 10.5679 19.7843 11.8923 19.9548 13.1559C21.1906 13.2497 22.4581 12.5254 23.2261 11.5909Z" fill="black"/>
</g>
<defs>
<clipPath id="clip0_175_3665">
<rect width="17.9664" height="22.0625" fill="white" transform="translate(11 8.06982)"/>
</clipPath>
</defs>
</svg>
