<svg width="40" height="40" viewBox="0 0 40 40" fill="none" xmlns="http://www.w3.org/2000/svg">
<circle cx="20" cy="20" r="20" fill="white"/>
<g clip-path="url(#clip0_175_3671)">
<path fill-rule="evenodd" clip-rule="evenodd" d="M29.9999 20.7383C29.9999 19.9935 29.9346 19.2783 29.8144 18.5908H20.2042V22.6523H25.6962C25.4597 23.965 24.7406 25.0768 23.6601 25.8216V28.4558H26.9584C28.8877 26.6278 30.0009 23.9363 30.0009 20.7383H29.9999Z" fill="#3E82F1"/>
<path fill-rule="evenodd" clip-rule="evenodd" d="M20.2043 31C22.9594 31 25.2694 30.0593 26.9575 28.4558L23.6592 25.8217C22.745 26.4518 21.577 26.8237 20.2033 26.8237C17.5453 26.8237 15.2959 24.9769 14.4932 22.4951H11.0853V25.2153C12.7647 28.6467 16.2149 31 20.2043 31Z" fill="#32A753"/>
<path fill-rule="evenodd" clip-rule="evenodd" d="M14.4941 22.4952C14.2903 21.8651 14.174 21.1924 14.174 20.5C14.174 19.8076 14.2903 19.135 14.4941 18.5049V15.7847H11.0853C10.3941 17.2021 10 18.8056 10 20.5C10 22.1945 10.3941 23.7979 11.0853 25.2154L14.4941 22.4952Z" fill="#F9BB00"/>
<path fill-rule="evenodd" clip-rule="evenodd" d="M20.2043 14.1763C21.702 14.1763 23.0478 14.7065 24.1053 15.7461L27.0325 12.7341C25.2646 11.0406 22.9546 10 20.2043 10C16.2149 10 12.7647 12.3532 11.0853 15.7846L14.4941 18.5049C15.2968 16.023 17.5463 14.1763 20.2043 14.1763Z" fill="#E74133"/>
</g>
<defs>
<clipPath id="clip0_175_3671">
<rect width="20" height="21" fill="white" transform="translate(10 10)"/>
</clipPath>
</defs>
</svg>
