<svg width="24" height="24" viewBox="0 0 24 24" fill="none" xmlns="http://www.w3.org/2000/svg">
<mask id="path-1-inside-1_806_629" fill="white">
<path fill-rule="evenodd" clip-rule="evenodd" d="M9 3C4.58172 3 1 6.58172 1 11C1 15.4183 4.58172 19 9 19H14.8493L15.2387 20.8125C15.3348 21.2601 15.9319 21.3539 16.1606 20.9574L17.5243 18.5936C20.7056 17.5366 23 14.5362 23 11C23 6.58172 19.4183 3 15 3H9Z"/>
</mask>
<path d="M14.8493 19L16.3159 18.685L16.0614 17.5H14.8493V19ZM15.2387 20.8125L16.7052 20.4975L15.2387 20.8125ZM16.1606 20.9574L17.4599 21.707L16.1606 20.9574ZM17.5243 18.5936L17.0513 17.1701L16.51 17.35L16.225 17.844L17.5243 18.5936ZM2.5 11C2.5 7.41015 5.41015 4.5 9 4.5V1.5C3.7533 1.5 -0.5 5.75329 -0.5 11H2.5ZM9 17.5C5.41015 17.5 2.5 14.5899 2.5 11H-0.5C-0.5 16.2467 3.7533 20.5 9 20.5V17.5ZM14.8493 17.5H9V20.5H14.8493V17.5ZM16.7052 20.4975L16.3159 18.685L13.3828 19.315L13.7721 21.1275L16.7052 20.4975ZM14.8613 20.2078C15.3188 19.4148 16.513 19.6025 16.7052 20.4975L13.7721 21.1275C14.1566 22.9177 16.5449 23.2929 17.4599 21.707L14.8613 20.2078ZM16.225 17.844L14.8613 20.2078L17.4599 21.707L18.8236 19.3432L16.225 17.844ZM21.5 11C21.5 13.8709 19.6378 16.3107 17.0513 17.1701L17.9973 20.0171C21.7734 18.7624 24.5 15.2016 24.5 11H21.5ZM15 4.5C18.5899 4.5 21.5 7.41015 21.5 11H24.5C24.5 5.75329 20.2467 1.5 15 1.5V4.5ZM9 4.5H15V1.5H9V4.5Z" fill="black" mask="url(#path-1-inside-1_806_629)"/>
</svg>
