<svg width="24" height="24" viewBox="0 0 24 24" fill="none" xmlns="http://www.w3.org/2000/svg">
<path d="M19.3367 18.1762C19.3367 18.1762 19.3367 18.1762 19.3225 18.1617C19.2238 18.06 19.1109 17.9584 18.998 17.8567C18.7157 17.5808 18.4335 17.2904 18.1654 17C17.9678 16.7967 17.7985 16.5789 17.615 16.3611C17.8549 15.94 18.0666 15.519 18.25 15.0979C18.9274 13.5732 19.2943 12.005 19.4072 10.3352C19.506 8.79605 19.4778 6.99553 18.998 5.51446C18.5041 3.9753 17.0646 2.66847 15.3994 3.07504C13.8753 3.45257 13.1697 4.99172 12.7887 6.4002C12.6476 6.90841 12.5629 7.41662 12.4782 7.93935C12.4218 7.11169 12.2948 6.29855 12.0549 5.57254C11.561 4.03338 10.1215 2.72655 8.45633 3.13312C6.93224 3.51065 6.22664 5.04981 5.84561 6.45828C5.01301 9.52206 5.36581 12.8182 6.67822 15.6642C6.81934 15.9836 6.98869 16.274 7.17214 16.5644C6.56533 17.2904 5.8315 17.8858 4.98478 18.1471C3.24901 18.6699 3.99695 21.4578 5.76094 20.935C7.0028 20.5575 8.06119 19.7879 8.96436 18.8151C9.58528 19.512 10.2344 20.2235 10.9965 20.7463C11.3775 21.0076 11.7585 21.0367 12.0831 20.9205C12.2666 20.9496 12.4782 20.935 12.704 20.877C13.9459 20.4994 15.0043 19.7299 15.9075 18.757C16.5284 19.454 17.1775 20.1655 17.9396 20.6882C19.4637 21.7191 20.8608 19.1926 19.3508 18.1762H19.3367ZM16.0345 5.89198C16.1332 5.73226 16.0909 5.86294 16.0345 5.89198ZM15.724 6.45828C15.7946 6.28403 15.8792 6.13883 15.978 5.97911C15.9921 5.95007 15.9921 5.95006 16.0062 5.93554C16.1615 6.09527 16.2744 6.28403 16.3308 6.53088C16.9235 8.66537 16.6977 11.3952 15.8792 13.428C15.8792 13.4571 15.851 13.5006 15.8369 13.5297C15.7804 13.3845 15.6958 13.2393 15.6534 13.0795C15.3147 12.0196 15.1454 10.9305 15.1454 9.81247C15.1454 8.69441 15.3006 7.50374 15.7099 6.45828H15.724ZM9.10548 5.95007C9.20426 5.79034 9.16193 5.92102 9.10548 5.95007ZM8.73857 13.1376C8.39988 12.0776 8.23054 10.9886 8.23054 9.87055C8.23054 8.75249 8.38577 7.56182 8.79502 6.51636C8.86558 6.34211 8.95025 6.19691 9.04903 6.03719C9.06314 6.00815 9.06314 6.00815 9.07726 5.99363C9.23249 6.15335 9.34538 6.34211 9.40183 6.58896C9.99453 8.72345 9.76874 11.4533 8.95025 13.4861C8.95025 13.5152 8.92203 13.5587 8.90791 13.5878C8.85147 13.4426 8.76679 13.2973 8.72446 13.1376H8.73857ZM12.1537 17.9874C12.1537 17.9874 12.0972 17.9293 12.069 17.9148C11.7868 17.6389 11.5045 17.3485 11.2364 17.0581C11.0388 16.8548 10.8695 16.637 10.686 16.4192C10.9259 15.9981 11.1376 15.577 11.3211 15.1559C11.8997 13.8491 12.2383 12.4842 12.4077 11.0757C12.5488 12.6439 12.9722 14.1831 13.6213 15.6206C13.7624 15.94 13.9318 16.2305 14.1152 16.5209C13.5649 17.1888 12.9016 17.726 12.1537 18.0019V17.9874Z" fill="#212121" stroke="#EDEBE4"/>
</svg>
