<svg width="40" height="40" viewBox="0 0 40 40" fill="none" xmlns="http://www.w3.org/2000/svg">
<circle cx="20" cy="20" r="20" fill="white"/>
<g clip-path="url(#clip0_175_3683)">
<path fill-rule="evenodd" clip-rule="evenodd" d="M15.3943 10.0178H24.6057C27.5668 10.0178 30 12.451 30 15.4121V24.5785C30 27.5395 27.5668 29.9727 24.6057 29.9727H15.3943C12.4332 29.9695 10 27.5363 10 24.5752V15.4089C10 12.451 12.4332 10.0178 15.3943 10.0178ZM25.3717 13.5035C25.9929 13.5035 26.5175 14.0281 26.5175 14.6493C26.5175 15.2705 25.9929 15.7951 25.3717 15.7951C24.7023 15.7951 24.2259 15.2705 24.2259 14.6493C24.2259 14.0281 24.7023 13.5035 25.3717 13.5035ZM19.9775 14.5527H20.0257C22.9868 14.5527 25.4683 17.0342 25.4683 19.9953C25.4683 23.0014 22.9868 25.4378 20.0257 25.4378H19.9775C17.0164 25.4378 14.5832 23.0046 14.5832 19.9953C14.5832 17.0342 17.0164 14.5527 19.9775 14.5527ZM19.9775 16.413H20.0257C21.9826 16.413 23.6048 18.0352 23.6048 19.9921C23.6048 21.9972 21.9826 23.6193 20.0257 23.6193H19.9775C18.0206 23.6193 16.3985 21.9972 16.3985 19.9921C16.3985 18.0352 18.0206 16.413 19.9775 16.413ZM15.4425 11.7365H24.5607C26.6141 11.7365 28.2845 13.4069 28.2845 15.4604V24.5302C28.2845 26.5836 26.6141 28.254 24.5607 28.254H15.4425C13.3891 28.254 11.7187 26.5836 11.7187 24.5302V15.4604C11.7187 13.4069 13.3891 11.7365 15.4425 11.7365Z" fill="#EE1149"/>
</g>
<defs>
<clipPath id="clip0_175_3683">
<rect width="20" height="19.9517" fill="white" transform="translate(10 10.0178)"/>
</clipPath>
</defs>
</svg>
