<svg width="320" height="56" viewBox="0 0 320 56" fill="none" xmlns="http://www.w3.org/2000/svg">
<rect width="320" height="56" rx="28" fill="#FCEA4F"/>
<circle cx="32" cy="28" r="16" fill="#DDCB32"/>
<g clip-path="url(#clip0_175_3629)">
<path d="M32.001 19.1477C26.4766 19.1477 22 22.6861 22 27.0533C22 29.8945 23.8968 32.3871 26.7441 33.7794C26.5354 34.5596 25.9862 36.6084 25.8768 37.0462C25.741 37.5893 26.0754 37.5832 26.2943 37.4373C26.4665 37.3218 29.0341 35.5749 30.1427 34.8231C30.7446 34.9122 31.3647 34.9588 31.999 34.9588C37.5213 34.9588 42 31.4205 42 27.0533C42 22.6861 37.5234 19.1477 32.001 19.1477Z" fill="#371D1E"/>
<path d="M25.0236 25.5981H26.0531C26.0531 25.5981 26.0592 28.4251 26.0531 29.0837C26.0531 29.564 27.1231 29.5701 27.1231 29.0898L27.1272 25.6346C27.1272 25.6346 27.4717 25.6366 28.1506 25.6366C28.791 25.6366 28.791 24.6294 28.1506 24.6294C27.4291 24.6294 25.0196 24.6091 25.0196 24.6091C24.4156 24.6091 24.4177 25.5961 25.0196 25.5961" fill="#FAE100"/>
<mask id="mask0_175_3629" style="mask-type:luminance" maskUnits="userSpaceOnUse" x="24" y="24" width="5" height="6">
<path d="M25.0236 25.5981H26.0531C26.0531 25.5981 26.0592 28.4251 26.0531 29.0837C26.0531 29.564 27.1231 29.5701 27.1231 29.0898L27.1272 25.6346C27.1272 25.6346 27.4717 25.6366 28.1506 25.6366C28.791 25.6366 28.791 24.6294 28.1506 24.6294C27.4291 24.6294 25.0196 24.6091 25.0196 24.6091C24.4156 24.6091 24.4177 25.5961 25.0196 25.5961" fill="white"/>
</mask>
<g mask="url(#mask0_175_3629)">
<path d="M28.793 24.6111H24.4177V29.5721H28.793V24.6111Z" fill="#FAE100"/>
</g>
<path d="M29.9501 25.7804L30.5236 27.5759H29.33L29.9501 25.7804ZM29.3077 24.9394C29.0544 25.4967 28.1404 28.1312 27.8364 28.8304C27.6176 29.335 28.564 29.7464 28.7828 29.2417L28.9896 28.5223H30.8722C30.8722 28.5223 30.8074 28.5527 31.0566 29.2113C31.2593 29.7464 32.2381 29.3755 32.0334 28.8405C31.7436 28.0765 30.7445 25.3285 30.5622 24.9394C30.4791 24.759 30.1771 24.6313 29.8853 24.6313C29.6441 24.6313 29.407 24.7205 29.3077 24.9394Z" fill="#FAE100"/>
<mask id="mask1_175_3629" style="mask-type:luminance" maskUnits="userSpaceOnUse" x="27" y="24" width="6" height="6">
<path d="M29.9501 25.7804L30.5236 27.5759H29.33L29.9501 25.7804ZM29.3077 24.9394C29.0544 25.4967 28.1404 28.1312 27.8364 28.8304C27.6176 29.335 28.564 29.7464 28.7828 29.2417L28.9896 28.5223H30.8722C30.8722 28.5223 30.8074 28.5527 31.0566 29.2113C31.2593 29.7464 32.2381 29.3755 32.0334 28.8405C31.7436 28.0765 30.7445 25.3285 30.5622 24.9394C30.4791 24.759 30.1771 24.6313 29.8853 24.6313C29.6441 24.6313 29.407 24.7205 29.3077 24.9394Z" fill="white"/>
</mask>
<g mask="url(#mask1_175_3629)">
<path d="M32.2401 24.6313H27.6176V29.7484H32.2401V24.6313Z" fill="#FAE100"/>
</g>
<path d="M32.3962 25.1056C32.3962 26.0013 32.4023 28.8871 32.4023 28.8871C32.4023 28.8871 32.3192 29.4606 32.8117 29.4606C33.3041 29.4606 34.3944 29.4545 34.8788 29.4545C35.3631 29.4545 35.3591 28.425 34.8767 28.425C34.3944 28.425 33.5108 28.419 33.5108 28.419C33.5108 28.419 33.5149 25.75 33.5129 25.1015C33.5129 24.7874 33.2332 24.6313 32.9556 24.6313C32.6779 24.6313 32.3983 24.7894 32.3983 25.1035" fill="#FAE100"/>
<mask id="mask2_175_3629" style="mask-type:luminance" maskUnits="userSpaceOnUse" x="32" y="24" width="4" height="6">
<path d="M32.3962 25.1056C32.3962 26.0013 32.4023 28.8871 32.4023 28.8871C32.4023 28.8871 32.3192 29.4606 32.8117 29.4606C33.3041 29.4606 34.3944 29.4545 34.8788 29.4545C35.3631 29.4545 35.3591 28.425 34.8767 28.425C34.3944 28.425 33.5108 28.419 33.5108 28.419C33.5108 28.419 33.5149 25.75 33.5129 25.1015C33.5129 24.7874 33.2332 24.6313 32.9556 24.6313C32.6779 24.6313 32.3983 24.7894 32.3983 25.1035" fill="white"/>
</mask>
<g mask="url(#mask2_175_3629)">
<path d="M35.3611 24.6313H32.3192V29.4586H35.3611V24.6313Z" fill="#FAE100"/>
</g>
<path d="M35.4907 24.9618C35.5008 25.355 35.4785 28.9035 35.4785 29.1669C35.4785 29.5824 36.5364 29.5803 36.5343 29.1669C36.5343 28.6846 36.5343 27.7706 36.5343 27.7706L36.8444 27.5214L38.2022 29.3736C38.4758 29.7364 39.3391 29.0818 39.0655 28.7191L37.6246 26.8202C37.6246 26.8202 38.6035 25.7623 38.9885 25.3793C39.2134 25.1564 38.5163 24.4532 38.2914 24.6781C38.0725 24.895 36.5404 26.4291 36.5404 26.4291C36.5404 26.4291 36.5546 25.4665 36.5404 24.9335C36.5343 24.7308 36.2871 24.6335 36.0338 24.6335C35.7622 24.6335 35.4846 24.745 35.4907 24.9618Z" fill="#FAE100"/>
<mask id="mask3_175_3629" style="mask-type:luminance" maskUnits="userSpaceOnUse" x="35" y="24" width="5" height="6">
<path d="M35.4907 24.9618C35.5008 25.355 35.4785 28.9035 35.4785 29.1669C35.4785 29.5824 36.5364 29.5803 36.5343 29.1669C36.5343 28.6846 36.5343 27.7706 36.5343 27.7706L36.8444 27.5214L38.2022 29.3736C38.4758 29.7364 39.3391 29.0818 39.0655 28.7191L37.6246 26.8202C37.6246 26.8202 38.6035 25.7623 38.9885 25.3793C39.2134 25.1564 38.5163 24.4532 38.2914 24.6781C38.0725 24.895 36.5404 26.4291 36.5404 26.4291C36.5404 26.4291 36.5546 25.4665 36.5404 24.9335C36.5343 24.7308 36.2871 24.6335 36.0338 24.6335C35.7622 24.6335 35.4846 24.745 35.4907 24.9618Z" fill="white"/>
</mask>
<g mask="url(#mask3_175_3629)">
<path d="M39.3411 24.4553H35.4785V29.7345H39.3411V24.4553Z" fill="#FAE100"/>
</g>
</g>
<path d="M107.016 22.5781C107 26.9688 105.938 30.6172 100.625 33.2812L99.5312 31.7812C101.906 30.6016 103.32 29.2812 104.125 27.7031L99.9219 28.0938L99.6719 26.3906L104.727 26.0859C104.875 25.4844 104.977 24.8438 105.023 24.1719H100.422V22.5781H107.016ZM108.812 35.4062V21.2188H110.812V26.6719H112.828V28.3125H110.812V35.4062H108.812ZM120.844 22.5781C120.828 26.9688 119.766 30.6172 114.453 33.2812L113.359 31.7812C115.734 30.6016 117.148 29.2812 117.953 27.7031L113.75 28.0938L113.5 26.3906L118.555 26.0859C118.703 25.4844 118.805 24.8438 118.852 24.1719H114.25V22.5781H120.844ZM122.641 35.4062V21.2188H124.641V26.6719H126.656V28.3125H124.641V35.4062H122.641ZM133.734 21.9531C136.789 21.9531 139.086 23.5 139.094 25.8438C139.086 27.9922 137.273 29.4297 134.719 29.7109V32.1406H140.266V33.7812H127.25V32.1406H132.734V29.7109C130.195 29.4219 128.391 27.9844 128.391 25.8438C128.391 23.5 130.68 21.9531 133.734 21.9531ZM130.359 25.8438C130.359 27.3438 131.742 28.1797 133.734 28.1875C135.734 28.1797 137.117 27.3438 137.125 25.8438C137.117 24.4219 135.734 23.5391 133.734 23.5469C131.742 23.5391 130.359 24.4219 130.359 25.8438ZM157.094 21.2188V35.4375H155.219V21.2188H157.094ZM144.547 31.0781C147.43 29.375 148.695 27.3047 148.969 24.5156H145.375V22.9062H150.953C150.953 23.6172 150.906 24.3047 150.82 24.9688H152.234V21.5312H154.125V34.8125H152.234V30.125H150.219V28.5156H152.234V26.5781H150.492C149.828 28.9297 148.375 30.9062 145.719 32.4844L144.547 31.0781ZM170.578 21.2188V29.6562H168.594V26.2969H166.375V24.6875H168.594V21.2188H170.578ZM158.5 28.0938C160.828 27.3125 161.891 25.4531 161.938 23.6719H159.078V22.0781H166.797V23.6719H163.969C164.008 25.3281 165.023 27 167.234 27.7344L166.25 29.2969C164.688 28.7891 163.602 27.7578 162.984 26.4844C162.359 27.9297 161.219 29.0938 159.531 29.6719L158.5 28.0938ZM160.828 32.7188C160.828 30.9922 162.688 29.9766 165.719 29.9688C168.758 29.9766 170.617 30.9922 170.625 32.7188C170.617 34.4453 168.758 35.4531 165.719 35.4531C162.688 35.4531 160.828 34.4453 160.828 32.7188ZM162.812 32.7188C162.812 33.5312 163.836 33.9375 165.719 33.9375C167.609 33.9375 168.633 33.5312 168.641 32.7188C168.633 31.8984 167.609 31.4922 165.719 31.5C163.836 31.4922 162.812 31.8984 162.812 32.7188ZM178.906 21.9375C181.906 21.9453 184.258 23.5703 184.266 26.0312C184.258 28.5156 181.906 30.1328 178.906 30.125C175.898 30.1328 173.562 28.5156 173.562 26.0312C173.562 23.5703 175.898 21.9453 178.906 21.9375ZM172.422 33.7031V32.0938H185.438V33.7031H172.422ZM175.5 26.0312C175.492 27.5781 176.93 28.5 178.906 28.5C180.867 28.5 182.289 27.5781 182.297 26.0312C182.289 24.5078 180.867 23.5469 178.906 23.5625C176.93 23.5469 175.492 24.5078 175.5 26.0312ZM199.266 32.2188V33.8594H186.25V32.2188H191.734V30.0781H187.75V25.2969H195.797V23.7344H187.734V22.1406H197.766V26.8594H189.75V28.4531H198.094V30.0781H193.719V32.2188H199.266ZM216.781 32.2188V33.8594H203.766V32.2188H209.25V30.0781H205.266V25.2969H213.312V23.7344H205.25V22.1406H215.281V26.8594H207.266V28.4531H215.609V30.0781H211.234V32.2188H216.781ZM228.969 22.5312V24.2344C228.961 26.1875 228.961 28.1172 228.453 31.0625L226.438 30.8906C226.977 28.1562 226.977 26.125 226.984 24.2344V24.125H218.938V22.5312H228.969ZM217.594 33.5781V31.9375H230.562V33.5781H217.594ZM243.328 21.2344V31.4531H241.328V21.2344H243.328ZM231.641 25.7188C231.641 23.6328 233.344 22.1328 235.531 22.1406C237.711 22.1328 239.414 23.6328 239.422 25.7188C239.414 27.8359 237.711 29.3281 235.531 29.3281C233.344 29.3281 231.641 27.8359 231.641 25.7188ZM233.594 25.7188C233.578 26.9062 234.414 27.5938 235.531 27.5938C236.609 27.5938 237.445 26.9062 237.453 25.7188C237.445 24.5625 236.609 23.8672 235.531 23.875C234.414 23.8672 233.578 24.5625 233.594 25.7188ZM233.797 35.1875V30.4219H235.812V33.5938H243.703V35.1875H233.797Z" fill="black"/>
<defs>
<clipPath id="clip0_175_3629">
<rect width="20" height="18.3747" fill="white" transform="translate(22 19.1477)"/>
</clipPath>
</defs>
</svg>
