<svg width="360" height="597" viewBox="0 0 360 597" fill="none" xmlns="http://www.w3.org/2000/svg">
<path d="M360 0H0V597H360V0Z" fill="#F0ECDE"/>
<path d="M-27.6062 413.443C-27.6062 413.443 -18.7558 398.811 -1.99819 403.058C14.7595 407.306 27.5054 412.971 36.0004 432.326C44.4953 451.681 47.9686 460.158 61.0172 470.56C93.5859 496.524 112.205 545.892 115.034 577.282L57.9767 578.932L-27.6097 413.439L-27.6062 413.443Z" fill="url(#paint0_linear_175_3908)"/>
<path d="M75.0522 581.921H-94.5372V390.464C-89.7197 384.426 -83.593 379.816 -75.9989 379.362C-72.8952 379.175 -69.8547 380.132 -66.8952 381.941C-47.3716 393.878 -31.5043 442.923 -25.1981 444.974C-17.9384 447.335 -6.13905 437.144 10.3828 454.75C26.9047 472.352 75.0522 581.921 75.0522 581.921Z" fill="url(#paint1_linear_175_3908)"/>
<path d="M389.803 342.806V576.744C381.094 579.127 372.11 581.579 363.273 583.994H255.531L201 553.283C201 553.283 228.378 501.831 247.733 473.981C267.084 446.128 294.395 409.312 307.412 380.987C320.426 352.666 337.261 329.536 363.467 330.007C371.941 330.158 381.192 335.543 389.803 342.806Z" fill="url(#paint2_linear_175_3908)"/>
<path d="M406.707 398.952C399.335 382.43 381.367 382.902 381.367 382.902C381.367 382.902 363.399 382.43 356.026 398.952C348.654 415.474 350.727 435.772 353.26 449.461C355.794 463.15 353.721 477.546 362.934 487.931C372.147 498.316 381.363 503.51 381.363 503.51C381.363 503.51 390.576 498.316 399.792 487.931C409.005 477.546 406.933 463.15 409.466 449.461C412 435.772 414.073 415.474 406.7 398.952H406.707Z" fill="url(#paint3_linear_175_3908)"/>
<path d="M234.13 569.122C234.13 569.122 231.769 534.192 254.9 529.234C278.03 524.279 282.749 534.664 289.122 534.664C295.495 534.664 315.318 521.446 331.84 524.279C348.362 527.112 357.765 538.348 377.637 534.664C397.509 530.979 412.936 521.682 422.177 534.664C431.418 547.646 420.192 574.316 420.192 574.316L234.13 569.122Z" fill="url(#paint4_linear_175_3908)"/>
<path d="M385.229 566.761L365.586 597H141.417C148.082 591.813 157.4 585.957 166.715 584.697C184.18 582.34 193.15 588.002 193.15 588.002C193.15 588.002 225.722 566.817 279.532 556.169C333.345 545.52 385.229 566.761 385.229 566.761Z" fill="url(#paint5_linear_175_3908)"/>
<path d="M351.145 494.775C358.394 474.949 345.895 464.329 335.144 463.15C324.394 464.329 311.89 474.949 319.143 494.775C319.143 494.775 310.092 503.886 309.892 522.861C309.652 545.284 322.141 559.445 335.144 562.278C348.147 559.445 360.636 545.284 360.397 522.861C360.196 503.886 351.145 494.775 351.145 494.775Z" fill="url(#paint6_linear_175_3908)"/>
<path d="M335.144 588.002C334.623 588.002 334.201 587.58 334.201 587.059V479.432C334.201 478.912 334.623 478.489 335.144 478.489C335.665 478.489 336.087 478.912 336.087 479.432V587.059C336.087 587.58 335.665 588.002 335.144 588.002Z" fill="#FF645C"/>
<path d="M336.087 539.263C335.996 539.263 335.904 539.228 335.834 539.154C335.7 539.013 335.704 538.792 335.844 538.658L348.119 526.858C348.26 526.725 348.481 526.728 348.615 526.869C348.749 527.01 348.745 527.231 348.605 527.365L336.33 539.165C336.263 539.231 336.175 539.263 336.087 539.263Z" fill="#FF645C"/>
<path d="M334.201 535.016C334.106 535.016 334.007 534.977 333.941 534.899L319.073 518.378C318.942 518.233 318.953 518.012 319.097 517.881C319.242 517.751 319.463 517.762 319.593 517.906L334.461 534.428C334.592 534.572 334.581 534.794 334.437 534.924C334.37 534.984 334.285 535.016 334.201 535.016Z" fill="#FF645C"/>
<path d="M336.087 516.84C335.999 516.84 335.915 516.808 335.845 516.745C335.704 516.611 335.697 516.389 335.83 516.249L348.105 503.267C348.239 503.126 348.46 503.119 348.601 503.253C348.742 503.387 348.749 503.608 348.615 503.749L336.341 516.731C336.27 516.805 336.179 516.84 336.084 516.84H336.087Z" fill="#FF645C"/>
<path d="M334.201 507.398C334.102 507.398 334.004 507.356 333.937 507.279L324.495 496.422C324.369 496.275 324.383 496.053 324.531 495.926C324.678 495.8 324.9 495.814 325.027 495.961L334.468 506.818C334.595 506.965 334.581 507.187 334.433 507.314C334.366 507.37 334.285 507.402 334.201 507.402V507.398Z" fill="#FF645C"/>
<path d="M334.201 490.405C334.095 490.405 333.99 490.359 333.923 490.268L329.204 484.13C329.084 483.976 329.116 483.754 329.267 483.638C329.422 483.518 329.64 483.546 329.76 483.701L334.479 489.838C334.599 489.993 334.567 490.215 334.416 490.331C334.352 490.38 334.275 490.405 334.201 490.405Z" fill="#FF645C"/>
<path d="M336.087 486.157C335.999 486.157 335.911 486.126 335.844 486.059C335.704 485.925 335.7 485.7 335.834 485.563L341.971 479.19C342.105 479.049 342.33 479.045 342.467 479.179C342.608 479.313 342.612 479.538 342.478 479.675L336.341 486.048C336.27 486.119 336.179 486.157 336.087 486.157Z" fill="#FF645C"/>
<path d="M334.195 309.062L333.842 309.17L338.586 324.775L338.94 324.668L334.195 309.062Z" fill="#092667"/>
<path d="M353.168 309.072L348.423 324.678L348.777 324.785L353.521 309.18L353.168 309.072Z" fill="#092667"/>
<path d="M339.704 309.111L339.338 309.158L341.373 324.763L341.739 324.716L339.704 309.111Z" fill="#092667"/>
<path d="M347.6 309.077L345.571 324.682L345.937 324.73L347.967 309.124L347.6 309.077Z" fill="#092667"/>
<path d="M335.621 324.264H351.71V335.222C351.71 337.407 349.936 339.181 347.751 339.181H339.583C337.398 339.181 335.624 337.407 335.624 335.222V324.264H335.621Z" fill="#092667"/>
<path d="M343.665 229C316.28 229 296.823 255.125 315.2 281.247C327.376 298.557 333.576 310.255 333.576 310.255H353.754C353.754 310.255 359.955 298.561 372.131 281.247C390.507 255.122 371.05 229 343.665 229Z" fill="url(#paint7_linear_175_3908)"/>
<path d="M343.665 229C325.884 229 313.25 255.125 325.183 281.247C333.091 298.557 337.116 310.255 337.116 310.255H350.218C350.218 310.255 354.243 298.561 362.151 281.247C374.084 255.122 361.45 229 343.669 229H343.665Z" fill="url(#paint8_linear_175_3908)"/>
<path d="M343.665 229C336.747 229 331.831 255.125 336.476 281.247C339.551 298.557 341.117 310.255 341.117 310.255H346.216C346.216 310.255 347.782 298.561 350.858 281.247C355.5 255.122 350.584 229 343.669 229H343.665Z" fill="url(#paint9_linear_175_3908)"/>
<path d="M200.298 438.422C200.298 438.422 193.257 439.361 191.022 440.804C188.787 442.247 183.456 446.895 185.36 448.331C185.36 448.331 184.403 449.925 184.931 450.457C185.458 450.988 186.532 449.88 186.532 449.88C186.532 449.88 186.268 451.393 187.137 451.34C188.006 451.287 190.934 447.043 190.934 447.043C190.934 447.043 188.481 451.512 189.97 451.629C191.458 451.745 192.292 448.088 193.218 447.617C194.14 447.145 196.378 447.708 198.352 445.91C199.2 445.139 200.594 443.809 200.594 443.809L200.305 438.422H200.298Z" fill="url(#paint10_linear_175_3908)"/>
<path d="M201.755 433.71C201.755 433.71 199.119 433.583 198.011 438.063C196.902 442.542 198.021 446.769 199.732 447.68C201.445 448.592 204.792 445.344 204.792 445.344L201.752 433.71H201.755Z" fill="#6424B7"/>
<path d="M211.028 421.938C207.977 424.81 199.886 430.476 200.632 437.757C201.378 445.037 205.207 450.175 211.186 450.253C217.165 450.327 214.181 428.167 214.181 428.167L211.028 421.938Z" fill="url(#paint11_linear_175_3908)"/>
<path d="M186.711 588.984C188.305 589.234 216.13 590.349 218.421 588.984C219.407 588.396 219.702 587.129 219.677 585.556C219.642 583.469 219.582 581.017 219.677 578.74C219.804 575.696 220.406 572.733 220.779 571.132C220.934 570.463 220.494 569.805 219.818 569.696L207.759 567.711C207.051 567.595 206.435 568.2 206.541 568.908C206.928 571.476 207.512 576.699 206.098 577.927C204.201 579.57 195.259 582.706 190.244 583.547C187.996 583.927 186.729 585.004 186.159 586.102C185.472 587.46 185.831 588.839 186.711 588.984Z" fill="url(#paint12_linear_175_3908)"/>
<path d="M205.038 578.025C205.2 578.025 205.362 578.025 205.524 578.036C205.718 578.05 205.908 578.142 206.087 578.208C206.27 578.275 206.457 578.37 206.625 578.469C206.791 578.564 206.921 578.743 207.051 578.884C207.241 579.092 207.115 579.458 206.815 579.454C206.629 579.454 206.404 579.479 206.224 579.422C206.041 579.363 205.841 579.292 205.668 579.204C205.503 579.12 205.299 579.035 205.162 578.909C205.042 578.796 204.933 578.669 204.824 578.55C204.648 578.363 204.767 578.022 205.038 578.029V578.025Z" fill="white"/>
<path d="M202.786 579.616C202.857 579.591 202.93 579.567 203.001 579.546C203.117 579.514 203.237 579.514 203.356 579.525C203.571 579.542 203.775 579.623 203.979 579.69C204.18 579.753 204.373 579.855 204.549 579.975C204.644 580.038 204.729 580.119 204.813 580.197C204.989 580.352 205.088 580.637 204.943 580.851C204.866 580.967 204.771 581.052 204.637 581.091C204.567 581.108 204.493 581.108 204.419 581.112C204.285 581.119 204.176 581.115 204.042 581.098C203.881 581.073 203.726 581.052 203.571 580.992C203.497 580.964 203.42 580.932 203.346 580.904C203.23 580.858 203.099 580.82 202.997 580.753C202.86 580.661 202.744 580.566 202.652 580.429C202.614 580.369 202.575 580.309 202.536 580.25C202.381 580.007 202.54 579.704 202.79 579.623L202.786 579.616Z" fill="white"/>
<path d="M199.665 580.668C199.799 580.573 199.932 580.506 200.105 580.503C200.2 580.503 200.295 580.528 200.39 580.542C200.436 580.549 200.481 580.556 200.527 580.57C200.692 580.623 200.854 580.696 201.016 580.76C201.263 580.858 201.512 581.024 201.713 581.2C201.78 581.256 201.847 581.316 201.91 581.376C202.023 581.485 202.086 581.608 202.114 581.763C202.149 581.967 202.09 582.15 201.91 582.266C201.783 582.347 201.646 582.396 201.491 582.389C201.407 582.386 201.319 582.372 201.234 582.361C200.96 582.329 200.664 582.266 200.414 582.143C200.253 582.062 200.084 581.988 199.929 581.896C199.855 581.851 199.774 581.777 199.704 581.721C199.63 581.661 199.577 581.615 199.521 581.52C199.443 581.386 199.436 581.242 199.419 581.094C199.397 580.915 199.531 580.763 199.661 580.672L199.665 580.668Z" fill="white"/>
<path d="M186.711 588.984C188.305 589.233 216.13 590.349 218.421 588.984C219.407 588.396 219.702 587.129 219.678 585.556C218.752 585.609 217.823 585.736 216.915 585.799C215.166 585.929 213.41 586.031 211.661 586.109C208.153 586.263 204.641 586.249 201.132 586.137C197.965 586.035 194.794 585.845 191.634 585.567C189.773 585.408 187.799 585.359 186.162 586.102C185.476 587.46 185.835 588.839 186.715 588.984H186.711Z" fill="white"/>
<path d="M234.746 592.168C236.361 592.204 264.088 589.649 266.178 587.995C267.075 587.284 267.202 585.985 266.973 584.434C266.664 582.368 266.28 579.943 266.076 577.677C265.801 574.644 266.006 571.628 266.167 569.988C266.234 569.305 265.714 568.71 265.027 568.689L252.809 568.309C252.095 568.288 251.56 568.967 251.761 569.654C252.482 572.149 253.749 577.251 252.51 578.652C250.846 580.531 242.396 584.817 237.533 586.309C235.355 586.981 234.239 588.217 233.82 589.381C233.317 590.817 233.859 592.14 234.746 592.165V592.168Z" fill="url(#paint13_linear_175_3908)"/>
<path d="M251.472 578.891C251.63 578.874 251.792 578.849 251.954 578.838C252.148 578.828 252.348 578.891 252.535 578.933C252.725 578.976 252.922 579.046 253.101 579.12C253.277 579.194 253.429 579.352 253.576 579.475C253.794 579.655 253.714 580.035 253.418 580.07C253.235 580.091 253.013 580.147 252.83 580.116C252.64 580.081 252.433 580.038 252.25 579.971C252.074 579.908 251.863 579.855 251.711 579.746C251.578 579.651 251.454 579.539 251.328 579.433C251.127 579.271 251.201 578.919 251.472 578.888V578.891Z" fill="white"/>
<path d="M249.449 580.763C249.515 580.732 249.582 580.693 249.653 580.665C249.765 580.615 249.881 580.601 250.001 580.594C250.216 580.584 250.43 580.64 250.638 580.675C250.846 580.71 251.05 580.788 251.24 580.883C251.342 580.936 251.437 581.003 251.532 581.066C251.725 581.196 251.859 581.464 251.746 581.696C251.687 581.819 251.602 581.917 251.472 581.974C251.405 582.002 251.331 582.012 251.261 582.023C251.131 582.048 251.022 582.062 250.884 582.058C250.719 582.058 250.564 582.055 250.402 582.012C250.325 581.995 250.244 581.974 250.166 581.953C250.047 581.925 249.91 581.903 249.8 581.851C249.653 581.78 249.526 581.699 249.413 581.576C249.368 581.523 249.322 581.467 249.276 581.414C249.09 581.196 249.209 580.876 249.445 580.76L249.449 580.763Z" fill="white"/>
<path d="M246.492 582.22C246.612 582.108 246.735 582.023 246.908 581.998C246.999 581.984 247.101 581.998 247.193 581.998C247.242 581.998 247.284 581.998 247.333 582.009C247.506 582.041 247.675 582.09 247.844 582.132C248.101 582.196 248.372 582.326 248.593 582.474C248.667 582.523 248.741 582.572 248.811 582.621C248.938 582.713 249.019 582.829 249.065 582.977C249.128 583.174 249.089 583.364 248.928 583.501C248.811 583.6 248.685 583.663 248.53 583.677C248.445 583.684 248.357 583.681 248.27 583.684C247.995 583.691 247.692 583.663 247.428 583.575C247.256 583.519 247.08 583.466 246.915 583.396C246.834 583.36 246.746 583.297 246.668 583.251C246.584 583.202 246.528 583.163 246.461 583.079C246.366 582.956 246.341 582.815 246.302 582.671C246.26 582.498 246.369 582.329 246.489 582.217L246.492 582.22Z" fill="white"/>
<path d="M234.746 592.168C236.361 592.204 264.088 589.649 266.178 587.995C267.075 587.284 267.202 585.985 266.973 584.434C266.062 584.61 265.157 584.856 264.267 585.039C262.55 585.398 260.825 585.729 259.101 586.035C255.642 586.651 252.162 587.101 248.667 587.449C245.514 587.766 242.347 587.995 239.176 588.136C237.311 588.224 235.348 588.435 233.82 589.385C233.317 590.821 233.859 592.144 234.746 592.168Z" fill="white"/>
<path d="M214.233 438.598C214.233 438.598 203.039 563.597 202.631 569.069C202.135 575.78 226.328 576.449 228.021 571.878C229.851 566.94 241.006 445.477 239.454 440.85C237.902 436.222 219.283 433.646 214.233 438.594V438.598Z" fill="url(#paint14_linear_175_3908)"/>
<path d="M267.769 568.186C267.41 568.496 266.995 568.802 266.537 569.094C266.115 569.365 265.657 569.622 265.168 569.875C264.911 570.009 264.64 570.139 264.359 570.266C264.218 570.333 264.067 570.393 263.922 570.459C263.651 570.579 263.38 570.692 263.095 570.804C262.652 570.977 262.195 571.142 261.727 571.3C261.308 571.441 260.885 571.571 260.456 571.698C253.942 573.612 246.025 573.855 244.944 570.526C243.864 567.211 230.168 438.608 231.487 434.769C232.797 430.93 254.491 428.526 256.511 434.769C256.511 434.769 268.719 558.428 269.307 565.318C269.391 566.31 268.81 567.285 267.772 568.19L267.769 568.186Z" fill="url(#paint15_linear_175_3908)"/>
<path d="M264.359 570.262C264.218 570.329 264.067 570.389 263.923 570.456C263.652 570.576 263.381 570.688 263.096 570.801L248.34 441.385L249.649 441.24L264.359 570.266V570.262Z" fill="white"/>
<path d="M267.769 568.186C267.41 568.496 266.995 568.802 266.537 569.094L252 441.543L253.316 441.399L267.769 568.186Z" fill="white"/>
<path d="M265.724 439.653C261.857 445.002 247.242 450.502 233.849 451.787C220.455 453.071 204.525 449.802 206.921 439.653C209.317 429.504 211.161 415.027 211.14 402.524C211.112 390.172 215.792 385.629 222.222 381.857C222.303 381.811 222.38 381.765 222.461 381.719C227.261 378.932 234.992 375.463 242.639 378.257C243.547 378.587 244.448 379.01 245.345 379.527C253.826 384.426 269.584 434.311 265.724 439.653Z" fill="url(#paint16_linear_175_3908)"/>
<path d="M242.639 378.257C241.819 379.429 237.283 385.499 230.829 386.572C225.878 387.392 223.401 384.362 222.225 381.86C222.306 381.814 222.384 381.769 222.465 381.723C227.264 378.936 234.996 375.466 242.643 378.26L242.639 378.257Z" fill="#FBD6BE"/>
<path d="M260.002 454.912C260.002 454.912 258.352 458.529 258.194 462.555C258.035 466.581 259.306 470.1 260.104 471.62C260.9 473.14 262.283 472.665 261.691 470.885C261.1 469.104 261.044 468.523 261.044 468.523C261.044 468.523 262.884 472.665 264.334 473.429C265.781 474.193 265.925 472.767 265.267 471.976C265.267 471.976 267.118 472.905 266.769 471.596C266.421 470.287 264.549 468.281 264.007 466.067C264.007 466.067 266.347 469.738 267.336 469.664C268.325 469.59 268.226 469.104 267.308 467.953C266.389 466.799 265.158 465.462 265.478 463.636C265.802 461.809 266.034 457.428 264.838 456.608C263.638 455.785 260.006 454.915 260.006 454.915L260.002 454.912Z" fill="url(#paint17_linear_175_3908)"/>
<path d="M237.625 390.01C237.533 396.151 241.886 404.917 244.747 412.321C247.605 419.721 245.264 449.334 251.359 455.841C257.451 462.344 273.315 460.511 274.374 452.829C276.341 438.566 255.561 389.359 248.748 384.549C241.935 379.738 237.709 384.549 237.628 390.01H237.625Z" fill="url(#paint18_linear_175_3908)"/>
<path d="M187.749 495.388L184.67 495.504L186.183 449.165L189.263 449.049L187.749 495.388Z" fill="white"/>
<path d="M190.557 448.169C191.318 449.827 190.589 451.783 188.932 452.544C187.274 453.304 185.318 452.575 184.558 450.918C183.797 449.26 184.526 447.304 186.183 446.544C187.841 445.783 189.797 446.512 190.557 448.169Z" fill="url(#paint19_linear_175_3908)"/>
<path d="M192.873 579.806C193.633 581.463 192.905 583.42 191.247 584.18C189.59 584.94 187.633 584.212 186.873 582.554C186.113 580.897 186.841 578.94 188.499 578.18C190.156 577.42 192.113 578.148 192.873 579.806Z" fill="url(#paint20_linear_175_3908)"/>
<path d="M179.395 580.798C180.155 582.456 179.427 584.412 177.769 585.172C176.112 585.933 174.155 585.204 173.395 583.547C172.635 581.889 173.363 579.933 175.021 579.173C176.678 578.412 178.635 579.141 179.395 580.798Z" fill="url(#paint21_linear_175_3908)"/>
<path d="M196.406 580.225L169.654 579.767C166.973 579.722 164.833 577.508 164.879 574.827L166.174 499.023C166.22 496.341 168.433 494.202 171.115 494.248L197.866 494.705C200.548 494.751 202.688 496.964 202.642 499.646L201.347 575.449C201.301 578.131 199.088 580.271 196.406 580.225Z" fill="url(#paint22_linear_175_3908)"/>
<path d="M185.874 494.645L182.361 579.884L183.68 579.939L187.193 494.699L185.874 494.645Z" fill="white"/>
<path d="M182.355 525.989C179.698 525.944 177.502 528.062 177.453 530.726L177.241 542.94C177.199 545.604 179.321 547.797 181.978 547.842L184.931 547.934L185.831 526.074L182.351 525.993L182.355 525.989ZM183.671 546.572L182.02 546.523C181.07 546.509 180.197 546.125 179.55 545.457C178.899 544.781 178.551 543.894 178.565 542.962L178.776 530.747C178.793 529.41 179.599 528.185 180.817 527.626C181.295 527.404 181.809 527.302 182.334 527.309L184.463 527.358L183.671 546.576V546.572Z" fill="white"/>
<path d="M247.087 361.696C246.855 361.513 246.598 361.355 246.327 361.214C246.186 360.338 245.841 359.296 244.979 358.895C244.332 358.592 243.153 358.628 241.977 358.779C240.257 358.997 238.55 359.458 238.55 359.458C238.55 359.458 238.508 359.511 238.434 359.609C238.17 359.965 237.491 360.922 236.833 362.238C236.713 362.477 236.593 362.727 236.477 362.988C236.298 363.396 236.122 363.825 235.967 364.279C235.714 365.022 235.502 365.81 235.386 366.626C235.386 366.633 235.386 366.64 235.386 366.644C235.365 366.795 235.348 366.947 235.33 367.098C235.217 368.217 235.284 369.375 235.636 370.518C235.749 370.891 235.893 371.261 236.073 371.627C236.073 371.627 236.08 371.641 236.083 371.648C236.428 372.352 236.9 373.041 237.519 373.703C239.694 376.012 242.614 373.657 243.635 372.686C244.87 372.06 245.908 371.036 246.302 369.677C246.44 369.209 246.419 368.798 246.288 368.428C246.345 368.379 246.401 368.326 246.454 368.27C247.481 367.165 247.446 366.471 247.08 366.046C247.984 364.913 248.882 363.118 247.087 361.693V361.696ZM238.089 372.443C239.204 373.636 241.509 373.682 243.417 372.799C240 375.466 238.166 372.57 238.089 372.443ZM242.044 359.694C243.297 359.377 244.497 359.169 245.007 359.349C245.641 359.578 245.993 360.387 246.183 361.144C245.401 359.655 243.688 359.462 242.044 359.694Z" fill="#0D2943"/>
<path d="M233.736 383.018L231.685 383.229C229.682 383.433 227.979 383.982 227.719 381.529L227.515 379.594L227.462 379.08L227.134 375.962L227.082 375.463L227.036 375.026V374.984L227.008 374.759L226.631 371.205L226.427 369.269L226.371 368.741L226.248 367.58L229.651 367.232L230.235 367.172L234.278 366.76L234.771 366.711L235.285 366.658L235.383 366.647L235.548 366.63L235.556 366.679L235.693 367.96L235.918 370.1L236.083 371.651L236.365 374.305L236.597 376.536L236.801 378.362L236.889 379.143L237.083 380.896C237.34 383.352 235.742 382.814 233.74 383.014L233.736 383.018Z" fill="#FBD6BE"/>
<path d="M235.548 366.612L236.199 372.873C232.645 375.48 228.352 375.501 227.082 375.441L226.958 374.417L226.916 374.009L226.244 367.58L235.545 366.612H235.548Z" fill="#FBC3A0"/>
<path d="M226.469 374.706C230.154 375.251 236.185 372.257 236.879 367.569L238.353 360.531C239.046 355.84 235.809 351.477 231.118 350.784C226.427 350.09 222.063 353.328 221.37 358.019L220.744 365.183C220.051 369.874 222.644 374.143 226.473 374.706H226.469Z" fill="#FBD6BE"/>
<path d="M242.062 355.601C241.548 353.609 235.365 345.311 231.477 347.296C231.477 347.296 228.961 345.551 224.952 347.761C220.628 350.147 218.361 353.676 217.914 356.558C217.555 358.846 218.671 362.995 218.984 364.082C219.03 364.254 219.062 364.349 219.062 364.349C219.062 364.349 220.314 364.518 220.691 365.56C220.691 365.56 220.747 364.687 220.895 363.463C220.895 363.459 220.895 363.456 220.895 363.452C220.983 362.727 221.103 361.879 221.261 361.01C221.581 359.257 222.06 357.438 222.757 356.432C224.122 354.464 227.106 353.064 227.106 353.064C227.106 353.064 227.078 357.188 230.301 359.008C231.494 359.68 232.585 360.053 233.486 360.257C234.461 360.989 235.573 361.671 236.833 362.238C237.178 362.393 237.533 362.541 237.899 362.674C238.406 362.864 238.937 363.033 239.493 363.181L239.546 363.705L239.553 363.783L239.803 366.299C239.803 366.299 239.919 365.564 240.243 365.155C240.383 364.976 240.563 364.856 240.792 364.891C240.792 364.891 241.608 361.555 241.974 358.779C242.15 357.449 242.224 356.245 242.058 355.601H242.062ZM227.919 353.676C227.919 353.676 229.418 356.949 232.863 359.771C230.741 358.979 228.267 357.287 227.919 353.676Z" fill="#0D2943"/>
<path d="M232.367 361.369C232.019 361.232 231.621 361.147 231.181 361.161C230.435 361.186 229.703 361.503 229.584 361.964C229.569 362.023 229.707 362.055 229.756 361.995C229.999 361.696 230.653 361.495 231.185 361.531C231.47 361.548 231.748 361.605 231.976 361.7C232.237 361.809 232.434 361.974 232.74 362.044C232.87 362.076 232.997 362.016 233.004 361.935C233.025 361.689 232.677 361.496 232.367 361.372V361.369Z" fill="#0D2943"/>
<path d="M224.407 361.401C224.059 361.263 223.661 361.179 223.221 361.193C222.472 361.218 221.743 361.534 221.623 361.995C221.609 362.055 221.747 362.087 221.796 362.027C222.039 361.728 222.693 361.527 223.225 361.562C223.51 361.58 223.788 361.636 224.016 361.731C224.277 361.84 224.474 362.006 224.78 362.076C224.91 362.108 225.037 362.048 225.044 361.967C225.065 361.721 224.717 361.527 224.407 361.404V361.401Z" fill="#0D2943"/>
<path style="mix-blend-mode:multiply" d="M227.43 363.234C227.162 363.853 226.057 365.708 226.149 366.028C226.24 366.348 226.99 366.373 227.257 366.236C227.792 365.958 227.771 362.453 227.433 363.234H227.43Z" fill="url(#paint23_linear_175_3908)"/>
<path d="M227.99 364.226C227.937 364.226 227.884 364.209 227.838 364.17C227.353 363.734 227.092 363.73 226.497 364.149C226.395 364.223 226.258 364.195 226.184 364.096C226.114 363.994 226.139 363.857 226.237 363.783C226.997 363.244 227.493 363.259 228.134 363.839C228.225 363.924 228.232 364.064 228.151 364.156C228.106 364.205 228.046 364.23 227.986 364.23L227.99 364.226Z" fill="white"/>
<path d="M231.684 368.062C231.523 368.062 231.361 368.052 231.195 368.03C229.059 367.767 227.535 365.813 227.799 363.674C228.063 361.538 230.02 360.014 232.156 360.278C233.191 360.405 234.116 360.929 234.757 361.752C235.397 362.576 235.679 363.6 235.552 364.635C235.425 365.669 234.901 366.591 234.077 367.235C233.384 367.774 232.55 368.062 231.684 368.062ZM231.674 360.7C229.957 360.7 228.461 361.985 228.246 363.734C228.011 365.627 229.358 367.355 231.252 367.591C232.17 367.703 233.074 367.453 233.803 366.887C234.531 366.32 234.996 365.5 235.108 364.585C235.221 363.67 234.971 362.762 234.405 362.034C233.838 361.306 233.018 360.841 232.103 360.728C231.959 360.711 231.818 360.7 231.674 360.7Z" fill="white"/>
<path d="M222.651 368.326C222.493 368.326 222.331 368.315 222.169 368.298C220.033 368.034 218.509 366.081 218.773 363.941C219.037 361.805 220.994 360.281 223.13 360.545C225.266 360.809 226.79 362.766 226.526 364.902C226.279 366.876 224.594 368.326 222.655 368.326H222.651ZM222.648 360.964C220.93 360.964 219.435 362.249 219.22 363.998C218.984 365.891 220.336 367.619 222.225 367.854C224.119 368.087 225.846 366.739 226.082 364.849C226.318 362.956 224.967 361.228 223.077 360.992C222.933 360.975 222.792 360.964 222.651 360.964H222.648Z" fill="white"/>
<path d="M229.629 369.713C229.471 370.388 228.894 371.085 227.599 371.257C227.434 371.278 227.275 371.286 227.127 371.278C225.625 371.212 224.78 369.836 224.984 369.195C225.037 369.026 225.164 368.91 225.368 368.878C225.945 368.798 228.253 368.513 228.929 368.305C229.042 368.27 229.151 368.284 229.249 368.337C229.573 368.509 229.774 369.1 229.633 369.713H229.629Z" fill="#FB6B4A"/>
<path d="M229.629 369.712C229.471 370.388 228.894 371.085 227.599 371.257C227.433 371.278 227.275 371.285 227.127 371.278C227.117 371.18 227.12 371.078 227.131 370.976C227.233 370.078 228.099 369.442 229.059 369.551C229.263 369.575 229.453 369.628 229.629 369.709V369.712Z" fill="#FB8667"/>
<path d="M229.246 368.337C229.228 368.632 228.289 369.005 227.089 369.192C226.184 369.332 225.379 369.325 224.981 369.195C225.034 369.026 225.16 368.91 225.365 368.878C225.942 368.798 228.25 368.513 228.926 368.305C229.038 368.27 229.148 368.284 229.246 368.337Z" fill="white"/>
<path style="mix-blend-mode:multiply" d="M225.713 366.493C225.741 367.756 224.741 368.801 223.482 368.833C222.218 368.861 221.173 367.861 221.141 366.602C221.113 365.338 222.113 364.293 223.373 364.261C224.636 364.233 225.681 365.233 225.713 366.493Z" fill="url(#paint24_radial_175_3908)"/>
<path style="mix-blend-mode:multiply" d="M234.774 366.735C234.802 367.999 233.803 369.044 232.543 369.076C231.28 369.104 230.235 368.104 230.203 366.845C230.175 365.581 231.174 364.536 232.434 364.504C233.698 364.476 234.743 365.476 234.774 366.735Z" fill="url(#paint25_radial_175_3908)"/>
<path d="M239.747 364.701C239.624 364.701 239.522 364.603 239.522 364.476C239.522 364.068 239.384 363.762 239.099 363.544C238.026 362.717 235.348 363.417 235.32 363.424C235.2 363.456 235.077 363.385 235.045 363.266C235.014 363.146 235.084 363.023 235.204 362.991C235.323 362.959 238.124 362.231 239.37 363.188C239.764 363.491 239.965 363.924 239.965 364.476C239.965 364.599 239.863 364.701 239.74 364.701H239.747Z" fill="white"/>
<path d="M236.928 368.861C238.149 369.23 239.433 368.537 239.799 367.32L240.165 366.109C240.281 365.718 240.292 365.321 240.208 364.948C240.095 364.444 239.82 363.987 239.419 363.66C239.419 363.66 239.426 363.579 238.698 363.262C238.673 363.252 238.649 363.241 238.624 363.234C238.427 363.174 238.226 363.142 238.029 363.135C237.966 363.135 237.903 363.135 237.839 363.135C237.786 363.135 237.73 363.142 237.677 363.149C237.628 363.153 237.582 363.16 237.537 363.174C237.47 363.185 237.403 363.202 237.336 363.22C236.977 363.318 236.65 363.501 236.379 363.762C236.094 364.026 235.872 364.371 235.749 364.772L235.612 365.219L235.379 365.979C235.013 367.2 235.703 368.484 236.924 368.85L236.928 368.861Z" fill="#FBD6BE"/>
<path d="M222.408 364.198C222.433 364.198 222.458 364.198 222.482 364.195C222.507 364.191 222.531 364.195 222.556 364.191C222.598 364.191 222.633 364.166 222.672 364.142C222.7 364.1 222.729 364.054 222.76 364.012C222.732 364.008 222.7 364.001 222.676 363.98C222.637 363.952 222.602 363.917 222.57 363.871C222.538 363.825 222.556 363.73 222.595 363.73C222.63 363.73 222.665 363.73 222.7 363.73C222.739 363.734 222.781 363.751 222.82 363.762C222.824 363.762 222.824 363.762 222.82 363.762C222.824 363.762 222.831 363.762 222.834 363.762C222.848 363.762 222.862 363.765 222.876 363.769C222.883 363.769 222.89 363.772 222.897 363.776C222.901 363.776 222.908 363.776 222.912 363.776C222.919 363.776 222.922 363.776 222.915 363.776C222.929 363.776 222.943 363.783 222.957 363.786C223.277 363.47 223.647 363.304 224.034 363.375C224.499 363.456 224.963 363.906 225.185 364.67C225.206 364.747 225.139 364.8 225.114 364.73C224.858 364.093 224.418 363.734 223.992 363.716C223.489 363.695 223.049 364.131 222.637 364.532C222.574 364.596 222.479 364.444 222.538 364.342C222.546 364.328 222.556 364.318 222.563 364.304C222.542 364.311 222.517 364.321 222.493 364.314C222.465 364.307 222.436 364.29 222.408 364.269C222.387 364.251 222.391 364.188 222.415 364.191L222.408 364.198Z" fill="#0D2943"/>
<path d="M229.509 364.311C229.9 363.674 230.449 363.287 231.026 363.378C231.265 363.417 231.501 363.551 231.705 363.765C231.719 363.765 231.73 363.765 231.744 363.769C231.748 363.769 231.755 363.769 231.758 363.769C231.751 363.769 231.751 363.769 231.758 363.769C231.765 363.769 231.776 363.769 231.783 363.769C231.814 363.769 231.846 363.765 231.878 363.765C231.909 363.765 231.941 363.765 231.973 363.765C232.004 363.762 232.019 363.836 231.994 363.864C231.966 363.895 231.938 363.931 231.906 363.952C231.895 363.959 231.881 363.959 231.871 363.966C231.874 363.973 231.881 363.98 231.888 363.987C231.906 363.994 231.923 364.001 231.938 364.005C231.973 364.015 232.004 364.036 232.04 364.05C232.11 364.078 232.18 364.103 232.247 364.117C232.282 364.124 232.279 364.219 232.247 364.216C232.173 364.209 232.099 364.198 232.026 364.177C232.015 364.177 232.004 364.17 231.997 364.166C232.071 364.3 232.135 364.452 232.184 364.617C232.205 364.691 232.138 364.74 232.11 364.677C231.853 364.064 231.41 363.723 230.98 363.709C230.474 363.691 230.027 364.11 229.611 364.497C229.545 364.557 229.45 364.413 229.509 364.314V364.311Z" fill="#0D2943"/>
<path d="M155.8 597H-35.1464C-25.2332 581.632 -6.44159 558.495 17.9348 556.169C54.7545 552.657 73.1661 572.427 78.3566 576.671C83.5507 580.915 91.1026 579.035 111.872 581.921C127.683 584.117 147.326 592.922 155.8 597Z" fill="url(#paint26_linear_175_3908)"/>
<path d="M279.196 212.92C279.196 212.92 283.443 201.357 299.258 203.479C299.258 203.479 289.816 194.037 278.488 206.262C278.488 206.262 264.799 198.288 253 208.673C253 208.673 268.343 202.536 279.199 212.92H279.196Z" fill="#FFFEFE"/>
<path d="M345.293 453.789C345.293 453.789 349.54 442.226 365.355 444.348C365.355 444.348 355.913 434.906 344.586 447.131C344.586 447.131 330.896 439.157 319.097 449.542C319.097 449.542 334.437 443.405 345.296 453.789H345.293Z" fill="#FFFEFE"/>
<path d="M28.2491 403.407C28.2491 403.407 32.4965 391.844 48.3111 393.966C48.3111 393.966 38.8695 384.524 27.5417 396.749C27.5417 396.749 13.8527 388.775 2.05334 399.16C2.05334 399.16 17.3963 393.023 28.2526 403.407H28.2491Z" fill="#FFFEFE"/>
<path d="M120.212 364.803L167.691 364.694V385.949L120.212 386.058C115.954 386.058 112.502 381.301 112.502 375.431C112.502 369.561 115.954 364.803 120.212 364.803Z" fill="#F6A157"/>
<path d="M167.694 385.949C171.953 385.949 175.405 381.191 175.405 375.322C175.405 369.452 171.953 364.694 167.694 364.694C163.436 364.694 159.984 369.452 159.984 375.322C159.984 381.191 163.436 385.949 167.694 385.949Z" fill="#FFB675"/>
<path d="M148.164 376.103C148.164 376.103 164.337 378.179 168.666 385.566C172.994 392.952 180.437 435.42 179.42 445.358C178.403 455.299 157.936 454.62 154.801 454.335C151.665 454.05 142.78 416.41 142.47 416.108C142.16 415.805 148.167 376.1 148.167 376.1L148.164 376.103Z" fill="url(#paint27_linear_175_3908)"/>
<path d="M159.066 463.069C159.066 463.069 162.5 567.774 160.804 573.299C159.727 576.808 150.701 576.512 149.254 573.299C147.396 569.168 133.595 472.148 134.101 466.465C134.851 458.054 159.066 463.069 159.066 463.069Z" fill="url(#paint28_linear_175_3908)"/>
<path d="M117.003 461.584C117.003 461.584 116.964 568.82 117.837 573.676C118.709 578.536 128.661 575.305 129.967 573.725C131.272 572.145 139.556 478.493 138.919 474.932C138.282 471.37 117.003 461.584 117.003 461.584Z" fill="url(#paint29_linear_175_3908)"/>
<path d="M111.196 483.962C111.71 485.341 116.457 488.265 125.044 489.082C131.871 489.722 138.339 489.701 139.841 488.251C140.288 487.815 140.651 486.84 140.943 485.443C143.304 474.231 141.147 436.025 141.073 435.68C140.999 435.297 116.813 436.06 116.813 436.06C116.813 436.06 110.264 481.488 111.193 483.962H111.196Z" fill="url(#paint30_linear_175_3908)"/>
<path d="M125.044 489.082C131.871 489.722 138.339 489.701 139.841 488.251C140.288 487.815 140.651 486.84 140.943 485.443L128.612 457.171C128.612 457.171 124.498 474.474 125.044 489.082Z" fill="url(#paint31_linear_175_3908)"/>
<path d="M132.483 489.022C133.426 490.669 145.929 490.296 154.899 488.923C155.124 488.892 155.343 488.856 155.557 488.818C156.099 488.733 156.627 488.638 157.134 488.54C157.359 488.508 157.577 488.462 157.788 488.42C161.343 487.713 163.848 486.837 163.982 485.883C164.714 480.601 159.787 442.148 159.002 437.348C159.002 437.348 156.205 437.289 152.323 437.327C152.105 437.327 151.88 437.334 151.651 437.334C151.137 437.341 150.609 437.355 150.068 437.362C149.849 437.369 149.624 437.377 149.409 437.384C140.96 437.567 129.882 438.274 129.126 440.681C127.894 444.605 131.019 486.446 132.49 489.025L132.483 489.022Z" fill="url(#paint32_linear_175_3908)"/>
<path d="M151.574 436.733C151.581 436.757 151.605 436.968 151.648 437.334C152.242 442.103 156.145 474.031 157.134 488.54C157.359 488.508 157.577 488.462 157.788 488.42C156.799 473.911 152.96 442.564 152.323 437.327C152.277 436.986 152.249 436.754 152.239 436.648L151.581 436.733H151.574Z" fill="white"/>
<path d="M149.325 436.733C149.332 436.764 149.357 436.982 149.402 437.38C150.015 442.359 153.96 474.65 154.896 488.923C155.121 488.892 155.339 488.857 155.554 488.818C154.611 474.527 150.726 442.743 150.06 437.362C150.022 437 149.987 436.761 149.976 436.652L149.321 436.736L149.325 436.733Z" fill="white"/>
<path d="M94.4279 587.756C96.2015 588.034 127.148 589.272 129.696 587.756C130.79 587.101 131.121 585.69 131.093 583.944C131.054 581.622 130.987 578.895 131.093 576.364C131.237 572.979 131.902 569.685 132.317 567.901C132.49 567.159 132.001 566.427 131.251 566.303L117.836 564.097C117.052 563.967 116.362 564.639 116.482 565.427C116.911 568.281 117.562 574.095 115.989 575.457C113.878 577.283 103.933 580.77 98.3551 581.706C95.8566 582.129 94.4455 583.329 93.812 584.55C93.0484 586.059 93.4496 587.597 94.4243 587.756H94.4279Z" fill="url(#paint33_linear_175_3908)"/>
<path d="M114.814 575.566C114.993 575.566 115.173 575.566 115.352 575.576C115.567 575.59 115.778 575.692 115.979 575.766C116.183 575.844 116.387 575.946 116.577 576.058C116.763 576.167 116.904 576.364 117.048 576.519C117.26 576.751 117.119 577.156 116.785 577.153C116.577 577.153 116.327 577.181 116.13 577.117C115.926 577.051 115.704 576.973 115.511 576.875C115.324 576.78 115.102 576.688 114.948 576.547C114.814 576.424 114.694 576.28 114.571 576.146C114.374 575.939 114.508 575.558 114.81 575.566H114.814Z" fill="white"/>
<path d="M112.308 577.332C112.389 577.308 112.467 577.276 112.548 577.255C112.678 577.216 112.808 577.22 112.942 577.23C113.181 577.251 113.406 577.343 113.635 577.413C113.857 577.484 114.075 577.596 114.268 577.73C114.374 577.8 114.469 577.892 114.564 577.976C114.758 578.149 114.867 578.465 114.708 578.701C114.624 578.828 114.518 578.926 114.367 578.969C114.29 578.99 114.205 578.99 114.124 578.993C113.976 579 113.853 579 113.705 578.976C113.522 578.947 113.353 578.923 113.181 578.856C113.097 578.824 113.012 578.789 112.928 578.757C112.801 578.708 112.653 578.662 112.541 578.589C112.386 578.486 112.259 578.381 112.157 578.226C112.115 578.159 112.073 578.092 112.03 578.029C111.858 577.758 112.037 577.424 112.312 577.332H112.308Z" fill="white"/>
<path d="M108.835 578.504C108.983 578.398 109.134 578.325 109.324 578.321C109.43 578.321 109.535 578.349 109.641 578.363C109.694 578.37 109.743 578.377 109.792 578.395C109.975 578.455 110.158 578.536 110.338 578.606C110.612 578.715 110.89 578.898 111.115 579.095C111.189 579.159 111.263 579.225 111.333 579.292C111.46 579.415 111.53 579.553 111.559 579.722C111.597 579.95 111.53 580.154 111.33 580.281C111.189 580.373 111.038 580.425 110.865 580.418C110.77 580.415 110.672 580.397 110.577 580.387C110.271 580.352 109.943 580.281 109.665 580.144C109.486 580.056 109.299 579.971 109.123 579.869C109.039 579.82 108.951 579.736 108.874 579.672C108.789 579.606 108.733 579.553 108.669 579.451C108.582 579.303 108.574 579.141 108.557 578.976C108.536 578.779 108.68 578.61 108.828 578.504H108.835Z" fill="white"/>
<path d="M94.428 587.756C96.2016 588.034 127.148 589.272 129.696 587.756C130.79 587.101 131.121 585.69 131.093 583.945C130.065 584.004 129.027 584.142 128.021 584.215C126.075 584.36 124.125 584.472 122.179 584.557C118.277 584.729 114.37 584.715 110.468 584.588C106.945 584.476 103.419 584.265 99.9036 583.955C97.8344 583.776 95.6386 583.723 93.8157 584.55C93.0521 586.059 93.4532 587.597 94.428 587.756Z" fill="white"/>
<path d="M128.57 592.133C130.364 592.151 161.163 588.878 163.461 587.009C164.45 586.204 164.569 584.761 164.291 583.036C163.915 580.746 163.454 578.054 163.19 575.537C162.838 572.166 163.018 568.809 163.172 566.986C163.236 566.226 162.648 565.575 161.884 565.561L148.29 565.325C147.495 565.311 146.911 566.075 147.143 566.838C147.984 569.601 149.469 575.256 148.114 576.832C146.292 578.947 136.959 583.842 131.575 585.581C129.164 586.362 127.943 587.755 127.493 589.054C126.954 590.659 127.577 592.123 128.566 592.137L128.57 592.133Z" fill="url(#paint34_linear_175_3908)"/>
<path d="M146.964 577.114C147.14 577.093 147.319 577.061 147.499 577.047C147.713 577.029 147.938 577.1 148.146 577.145C148.361 577.191 148.579 577.265 148.779 577.346C148.977 577.427 149.149 577.599 149.314 577.733C149.557 577.93 149.476 578.353 149.145 578.398C148.941 578.426 148.695 578.493 148.491 578.458C148.28 578.423 148.048 578.377 147.843 578.307C147.646 578.24 147.411 578.18 147.238 578.064C147.087 577.962 146.95 577.835 146.805 577.723C146.58 577.543 146.658 577.153 146.96 577.114H146.964Z" fill="white"/>
<path d="M144.743 579.225C144.817 579.187 144.894 579.148 144.968 579.113C145.092 579.056 145.222 579.039 145.355 579.032C145.595 579.018 145.831 579.074 146.066 579.113C146.299 579.151 146.527 579.232 146.738 579.334C146.855 579.391 146.96 579.465 147.066 579.535C147.284 579.679 147.439 579.975 147.316 580.232C147.249 580.372 147.161 580.482 147.016 580.545C146.943 580.577 146.858 580.591 146.781 580.605C146.636 580.633 146.513 580.651 146.362 580.647C146.179 580.647 146.003 580.647 145.824 580.605C145.736 580.584 145.648 580.563 145.56 580.545C145.426 580.513 145.275 580.492 145.151 580.436C144.986 580.358 144.842 580.274 144.719 580.133C144.666 580.073 144.616 580.014 144.564 579.957C144.353 579.714 144.483 579.359 144.743 579.229V579.225Z" fill="white"/>
<path d="M141.477 580.89C141.608 580.763 141.745 580.668 141.935 580.636C142.037 580.619 142.15 580.636 142.255 580.636C142.308 580.636 142.357 580.636 142.41 580.647C142.6 580.679 142.794 580.732 142.98 580.777C143.269 580.844 143.571 580.985 143.818 581.147C143.899 581.2 143.983 581.252 144.06 581.309C144.205 581.411 144.293 581.537 144.346 581.699C144.416 581.917 144.381 582.129 144.201 582.283C144.075 582.392 143.93 582.47 143.761 582.484C143.666 582.495 143.568 582.491 143.473 582.495C143.167 582.505 142.832 582.48 142.537 582.385C142.347 582.326 142.15 582.269 141.963 582.192C141.872 582.157 141.773 582.086 141.685 582.034C141.594 581.977 141.527 581.939 141.453 581.844C141.344 581.71 141.316 581.551 141.273 581.39C141.221 581.196 141.344 581.01 141.474 580.883L141.477 580.89Z" fill="white"/>
<path d="M128.57 592.133C130.365 592.151 161.163 588.878 163.461 587.009C164.45 586.204 164.57 584.761 164.292 583.036C163.282 583.244 162.279 583.533 161.29 583.751C159.386 584.177 157.472 584.571 155.557 584.94C151.718 585.676 147.854 586.232 143.976 586.675C140.475 587.076 136.956 587.379 133.433 587.583C131.357 587.706 129.179 587.974 127.497 589.054C126.958 590.659 127.581 592.123 128.57 592.137V592.133Z" fill="white"/>
<path d="M81.0346 387.765C79.8768 386.15 76.5372 385.443 76.7836 384.573C77.0264 383.704 77.9273 383.894 77.9273 383.894C77.9273 383.894 76.5372 383.215 77.5613 382.511C78.5853 381.807 82.8469 384.563 82.8469 384.563C82.8469 384.563 79.9718 382.465 80.7354 381.751C81.4991 381.037 84.4586 383.31 86.5982 385.974C87.9565 387.663 88.6674 389.391 89.0474 390.777C89.0685 390.809 89.1002 390.827 89.1178 390.862C89.9694 392.502 102.779 409.432 103.736 408.844C105.692 407.641 111.193 395.979 111.193 395.979L120.828 405.874C120.828 405.874 110.436 423.972 104.214 422.677C98.3658 421.456 85.9331 399.096 83.9554 395.141C83.7724 394.976 83.5823 394.8 83.3818 394.596C81.3829 392.572 81.9777 390.974 81.5061 390.084C81.0346 389.197 76.3859 388.297 76.8751 387.378C77.3607 386.46 81.0346 387.762 81.0346 387.762V387.765Z" fill="url(#paint35_linear_175_3908)"/>
<path d="M124.463 377.131C117.949 379.425 108.135 399.554 106.646 403.629C104.788 408.707 117.65 412.592 117.65 412.592C117.65 412.592 124.463 398.417 124.463 377.131Z" fill="url(#paint36_linear_175_3908)"/>
<path d="M148.164 376.103C142.702 374.893 131.248 374.161 124.463 377.134C117.678 380.108 115.092 397.291 116.116 410.678C117.14 424.064 114.233 440.459 115.493 442.958C116.753 445.456 157.746 444.348 159.488 440.899C161.23 437.45 155.121 377.652 148.167 376.107L148.164 376.103Z" fill="white"/>
<path d="M125.751 376.631C123.576 377.616 118.724 386.523 118.213 399.023C117.703 411.522 116.387 421.316 116.387 421.316C116.387 421.316 115.922 408.345 115.915 406.37C115.891 401.433 115.24 378.285 125.755 376.631H125.751Z" fill="url(#paint37_linear_175_3908)"/>
<path d="M109.771 420.218C110.137 418.856 115.845 418.092 115.845 418.092C115.845 418.092 111.816 418.402 111.949 417.22C112.083 416.041 116.313 415.822 120.12 416.544C123.815 417.244 126.3 419.141 127.461 420.218C127.468 420.218 127.475 420.211 127.482 420.207C129.678 419.482 151.225 419.12 152.57 418.476C153.914 417.835 146.992 410.083 150.543 407.679C154.093 405.276 162.947 406.912 162.947 406.912C162.947 406.912 169.327 422.537 167.596 427.555C165.864 432.573 127.82 426.795 126.437 426.408C126.384 426.394 126.339 426.358 126.293 426.33C125.642 426.404 124.783 426.443 123.703 426.351C120.49 426.077 119.821 424.261 118.759 423.842C117.696 423.424 113.023 426.07 112.766 424.919C112.509 423.768 116.64 422.185 116.64 422.185C114.448 421.643 111.048 423.494 110.619 422.561C110.19 421.629 111.105 421.133 111.105 421.133C111.105 421.133 109.405 421.573 109.771 420.211V420.218Z" fill="url(#paint38_linear_175_3908)"/>
<path d="M133.788 381.836C134.869 381.582 135.763 380.843 136.572 380.083C137.515 379.196 138.398 378.246 139.218 377.24C139.862 376.448 140.485 375.61 141.171 374.854C140.418 374.727 139.662 374.597 138.909 374.46C138.483 371.588 138.272 368.798 137.987 365.908C134.774 367.457 131.209 368.15 127.665 367.738C128.087 370.444 128.306 373.186 128.316 375.927C128.028 376.152 127.729 376.371 127.429 376.578C127.855 377.778 128.369 378.943 129.168 379.921C130.276 381.287 132.078 382.237 133.792 381.836H133.788Z" fill="#FBD6BE"/>
<path d="M134.506 372.549C136.019 371.81 137.216 370.673 138.317 369.424C138.205 368.259 138.099 367.094 137.983 365.912C134.77 367.46 131.205 368.154 127.662 367.742C127.869 369.065 128.024 370.395 128.133 371.732C129.72 373.232 132.205 373.555 134.506 372.552V372.549Z" fill="#FBC3A0"/>
<path d="M140.921 361.84C141.073 361.594 141.523 360.954 141.625 360.795C143.367 358.135 145.179 350.991 141.618 349.397C137.35 347.486 136.568 353.979 136.058 355.749C135.467 357.797 134.96 360.018 135.65 362.066C135.91 362.84 136.653 364.05 137.631 364.075C138.715 364.103 140.2 363.005 140.921 361.84Z" fill="#333333"/>
<path d="M124.382 347.564C124.382 347.564 120.216 350.706 120.902 356.192C121.588 361.679 126.279 355.907 126.279 355.907L124.382 347.564Z" fill="black"/>
<path d="M123.154 354.933C124.572 358.335 127.134 352.881 127.405 351.466C127.662 350.108 127.725 348.683 126.634 347.718C126.103 347.247 124.745 346.811 124.079 347.198C123.531 347.518 123.274 348.32 123.08 348.883C122.471 350.674 122.419 353.169 123.154 354.933Z" fill="#333333"/>
<path d="M129.179 373.024C133.134 373.235 139.218 369.47 139.486 364.437L140.348 356.843C140.615 351.811 136.755 347.514 131.723 347.243C126.691 346.976 122.394 350.836 122.123 355.869L122.169 363.512C121.901 368.544 125.068 372.806 129.175 373.024H129.179Z" fill="url(#paint39_linear_175_3908)"/>
<path style="mix-blend-mode:multiply" d="M126.363 364.554C126.416 365.69 125.547 366.654 124.424 366.707C123.302 366.757 122.348 365.877 122.295 364.74C122.242 363.603 123.112 362.639 124.234 362.586C125.357 362.537 126.31 363.417 126.363 364.554Z" fill="url(#paint40_radial_175_3908)"/>
<path style="mix-blend-mode:multiply" d="M136.231 364.107C136.283 365.243 135.414 366.208 134.292 366.26C133.169 366.313 132.215 365.43 132.163 364.293C132.11 363.157 132.979 362.192 134.105 362.14C135.228 362.09 136.181 362.97 136.234 364.107H136.231Z" fill="url(#paint41_radial_175_3908)"/>
<path d="M141.295 354.426C141.541 355.957 141.682 357.505 141.756 359.053C141.784 359.659 141.639 360.507 141.805 361.094C141.611 360.412 140.658 359.067 139.62 360C139.187 360.391 139.204 361.956 138.94 362.449C138.69 362.914 138.581 363.044 137.663 363.392C137.997 360.285 138.212 359.585 137.248 357.695C137.248 357.695 137.438 349.295 141.298 354.426H141.295Z" fill="#333333"/>
<path d="M122.26 349.601C120.648 349.679 118.357 350.358 117.65 351.421C119.364 350.85 120.831 352.117 122.119 353.039C126.3 356.03 133.046 355.531 136.727 352.452C136.811 355.64 136.674 360.299 138.937 362.449C140.014 361.763 140.798 361.731 141.618 360.721C143.934 357.864 144.409 354.039 143.564 350.404C142.688 346.628 139.479 344.192 135.83 344.34C133.845 344.421 131.969 345.361 130.005 345.276C128.506 345.213 127.067 344.664 125.593 344.347C124.583 344.133 123.826 344.245 122.876 344.368C122.147 344.463 121.166 344.256 120.891 343.038C120.437 343.957 121.37 346.096 121.936 346.958C121.194 347.374 118.706 347.564 118.301 346.779C119.001 348.19 120.641 349.225 122.264 349.601H122.26Z" fill="#333333"/>
<path style="mix-blend-mode:screen" d="M122.26 349.601C120.648 349.679 118.357 350.358 117.65 351.421C119.364 350.85 120.831 352.117 122.119 353.039C126.3 356.03 133.046 355.531 136.727 352.452C136.811 355.64 136.674 360.299 138.937 362.449C140.014 361.763 140.798 361.731 141.618 360.721C143.934 357.864 144.409 354.039 143.564 350.404C142.688 346.628 139.479 344.192 135.83 344.34C133.845 344.421 131.969 345.361 130.005 345.276C128.506 345.213 127.067 344.664 125.593 344.347C124.583 344.133 123.826 344.245 122.876 344.368C122.147 344.463 121.166 344.256 120.891 343.038C120.437 343.957 121.37 346.096 121.936 346.958C121.194 347.374 118.706 347.564 118.301 346.779C119.001 348.19 120.641 349.225 122.264 349.601H122.26Z" fill="black"/>
<path d="M138.849 365.134C140.105 365.644 141.534 365.039 142.041 363.786L142.547 362.544C142.709 362.139 142.758 361.721 142.706 361.32C142.639 360.774 142.389 360.267 141.998 359.877C141.998 359.877 142.016 359.792 141.273 359.388C141.249 359.374 141.224 359.359 141.196 359.352C140.992 359.268 140.784 359.215 140.577 359.191C140.51 359.184 140.443 359.176 140.376 359.173C140.32 359.169 140.26 359.173 140.204 359.173C140.151 359.173 140.102 359.173 140.052 359.184C139.978 359.184 139.908 359.198 139.838 359.212C139.447 359.282 139.081 359.444 138.771 359.694C138.444 359.947 138.177 360.288 138.008 360.704L137.821 361.165L137.501 361.946C136.994 363.202 137.596 364.631 138.852 365.138L138.849 365.134Z" fill="url(#paint42_linear_175_3908)"/>
<path d="M126.039 358.547C125.617 358.096 125.04 357.878 124.424 357.952C123.875 358.019 123.39 358.321 123.055 358.758C122.978 358.86 123.112 359.029 123.217 358.934C123.928 358.297 125.058 358.251 125.853 358.768C126.011 358.87 126.163 358.68 126.036 358.547H126.039Z" fill="#230E1B"/>
<path d="M131.74 367.277C131.515 368.094 130.808 368.921 129.316 369.072C129.126 369.09 128.946 369.093 128.774 369.076C127.064 368.924 126.194 367.203 126.469 366.433C126.543 366.229 126.691 366.091 126.93 366.063C127.595 365.989 130.248 365.75 131.037 365.528C131.17 365.493 131.29 365.511 131.399 365.581C131.758 365.806 131.945 366.538 131.74 367.277Z" fill="#FB6B4A"/>
<path d="M131.74 367.277C131.515 368.094 130.808 368.921 129.316 369.072C129.126 369.09 128.946 369.093 128.774 369.076C128.774 368.956 128.777 368.833 128.798 368.706C128.978 367.615 130.009 366.876 131.1 367.056C131.329 367.094 131.543 367.168 131.74 367.274V367.277Z" fill="#FB8667"/>
<path d="M131.399 365.581C131.357 365.94 130.259 366.355 128.876 366.524C127.834 366.654 126.912 366.609 126.469 366.433C126.543 366.229 126.691 366.091 126.93 366.063C127.595 365.989 130.248 365.75 131.037 365.528C131.17 365.493 131.29 365.511 131.399 365.581Z" fill="white"/>
<path d="M128.57 360.401C128.299 361.066 127.169 363.062 127.275 363.399C127.38 363.737 128.176 363.748 128.457 363.593C129.02 363.283 128.915 359.56 128.573 360.398L128.57 360.401Z" fill="#FBC3A0"/>
<path d="M133.493 358.198C133.071 357.748 132.493 357.53 131.878 357.604C131.329 357.67 130.843 357.973 130.509 358.409C130.431 358.511 130.565 358.68 130.671 358.585C131.381 357.948 132.511 357.903 133.306 358.42C133.465 358.522 133.616 358.332 133.489 358.198H133.493Z" fill="#230E1B"/>
<path d="M132.595 360.69C132.525 361.123 132.113 361.418 131.681 361.344C131.248 361.274 130.952 360.862 131.026 360.429C131.096 359.996 131.508 359.701 131.941 359.775C132.374 359.845 132.669 360.257 132.595 360.69Z" fill="#230E1B"/>
<path d="M125.74 360.767C125.67 361.2 125.258 361.496 124.826 361.422C124.393 361.351 124.097 360.94 124.171 360.507C124.241 360.074 124.653 359.778 125.086 359.852C125.519 359.923 125.814 360.334 125.74 360.767Z" fill="#230E1B"/>
<path d="M129.038 359.972C128.981 359.972 128.925 359.954 128.876 359.915C128.221 359.395 127.919 359.381 127.334 359.852C127.222 359.94 127.06 359.922 126.972 359.813C126.884 359.701 126.902 359.539 127.011 359.451C127.785 358.828 128.358 358.846 129.196 359.514C129.309 359.602 129.326 359.764 129.238 359.877C129.189 359.94 129.112 359.975 129.038 359.975V359.972Z" fill="white"/>
<path d="M122.915 364.082C121.824 364.082 120.782 363.691 119.955 362.966C119.051 362.175 118.512 361.077 118.431 359.88C118.354 358.68 118.744 357.523 119.54 356.622C120.332 355.717 121.429 355.179 122.626 355.098C123.826 355.02 124.984 355.411 125.885 356.206C126.789 356.998 127.327 358.096 127.408 359.293C127.486 360.493 127.095 361.65 126.3 362.551C125.508 363.456 124.41 363.994 123.214 364.075C123.112 364.082 123.013 364.086 122.915 364.086V364.082ZM122.925 355.601C122.837 355.601 122.749 355.601 122.661 355.608C121.598 355.679 120.631 356.157 119.927 356.956C119.227 357.755 118.878 358.779 118.949 359.842C119.019 360.904 119.498 361.872 120.296 362.576C121.095 363.276 122.119 363.625 123.182 363.554C124.245 363.484 125.212 363.005 125.916 362.206C126.617 361.408 126.965 360.383 126.895 359.321C126.824 358.258 126.346 357.29 125.547 356.586C124.815 355.942 123.893 355.598 122.925 355.598V355.601Z" fill="white"/>
<path d="M133.282 364.986C132.191 364.986 131.149 364.596 130.322 363.871C129.418 363.079 128.879 361.981 128.798 360.785C128.637 358.311 130.519 356.164 132.993 356.002C134.193 355.925 135.351 356.316 136.252 357.111C137.156 357.903 137.695 359.001 137.775 360.197C137.853 361.397 137.462 362.555 136.667 363.456C135.875 364.36 134.777 364.898 133.581 364.979C133.479 364.986 133.38 364.99 133.282 364.99V364.986ZM133.292 356.506C133.204 356.506 133.116 356.506 133.025 356.513C130.832 356.657 129.168 358.554 129.312 360.746C129.383 361.809 129.861 362.776 130.66 363.48C131.459 364.181 132.483 364.529 133.546 364.459C134.608 364.388 135.576 363.91 136.28 363.111C136.98 362.312 137.329 361.288 137.258 360.225C137.188 359.162 136.709 358.195 135.91 357.491C135.178 356.847 134.256 356.502 133.292 356.502V356.506Z" fill="white"/>
<path d="M145.933 375.705C151.845 375.762 156.947 379.425 160.983 389.49C164.914 399.29 166.983 406.37 167.596 409.263C167.972 411.051 148.801 413.152 146.858 412.455C144.919 411.762 137.512 375.625 145.933 375.705Z" fill="url(#paint43_linear_175_3908)"/>
<path d="M146.351 374.389C146.351 374.389 141.889 377.12 142.466 385.499C143.198 396.137 145.018 413.046 152.196 414.468C152.196 414.468 153.502 416.808 152.988 417.163C152.474 417.515 146.094 416.431 143.684 411.276C141.273 406.113 139.718 388.057 139.644 384.989C139.57 381.92 141.052 374.745 143.145 373.981L146.351 374.389Z" fill="url(#paint44_linear_175_3908)"/>
<path d="M14.134 317.937C4.87897 315.53 -4.38665 313.204 -13.6628 310.962C-15.0106 311.729 -16.3619 312.496 -17.7097 313.257C-12.8077 316.67 -7.93031 320.157 -3.08108 323.712C2.6655 321.836 8.40505 319.911 14.1376 317.937H14.134Z" fill="url(#paint45_linear_175_3908)"/>
<path d="M63.5415 315.164C55.9369 322.417 -2.9753 341.789 -3.03512 341.296C-6.67733 342.134 -10.3195 342.957 -13.9652 343.76C-25.6836 343.819 -37.402 343.837 -49.1169 343.816C-49.1169 343.809 -51.9392 339.857 -50.0917 338.946C-50.0248 339.403 3.4575 320.53 15.4539 314.896C26.9119 310.329 53.3398 295.834 63.4254 301.359C64.0307 301.693 64.5796 302.112 65.0582 302.604C65.1603 302.604 65.2729 302.601 65.389 302.604C67.511 302.629 71.4805 303.143 71.66 304.184C71.85 305.268 71.2412 308.502 63.5415 315.157V315.164Z" fill="#FBFEFF"/>
<path opacity="0.72" d="M68.9889 302.967C61.6306 310.294 52.65 315.093 43.8947 319C34.0238 323.398 23.8326 326.548 13.645 329.56C3.37297 332.601 -6.8428 335.88 -17.2627 338.055C-27.9676 340.297 -38.7921 341.655 -49.6343 342.609C-49.7293 342.616 -49.8102 342.598 -49.8806 342.57C-49.4935 343.284 -49.117 343.816 -49.117 343.816C-37.4021 343.837 -25.6837 343.816 -13.9653 343.756C-10.3196 342.95 -6.67741 342.13 -3.0352 341.293C-2.97186 341.785 54.1667 323.082 63.545 315.16C71.322 308.594 71.8534 305.268 71.6634 304.184C71.5649 303.628 70.3895 303.224 68.9924 302.96L68.9889 302.967Z" fill="url(#paint46_linear_175_3908)"/>
<path d="M29.3504 329.796C30.0648 332.822 30.7581 335.856 31.4372 338.9C31.4372 338.903 27.4607 342.486 17.7623 342.405C17.252 339.769 17.1359 338.365 17.1359 338.365C18.6033 336.067 20.0637 333.751 21.51 331.425C24.1247 330.89 26.7393 330.345 29.354 329.796H29.3504Z" fill="url(#paint47_linear_175_3908)"/>
<path d="M13.6063 326.467C13.4338 326.53 13.2614 326.597 13.0854 326.661C12.9799 326.699 12.8637 326.629 12.8321 326.502C12.7335 326.14 12.635 325.774 12.5365 325.411C12.5013 325.285 12.5611 325.151 12.6667 325.109C12.8391 325.045 13.0115 324.979 13.184 324.915C13.2896 324.876 13.4057 324.947 13.4409 325.074C13.5394 325.436 13.6379 325.802 13.7365 326.164C13.7717 326.291 13.7118 326.425 13.6063 326.467Z" fill="#3475D4"/>
<path d="M16.2983 325.454C16.1787 325.499 16.0626 325.541 15.9429 325.587C15.7916 325.644 15.6297 325.545 15.5805 325.362C15.4995 325.063 15.4186 324.764 15.3341 324.461C15.2849 324.282 15.3658 324.088 15.5171 324.028C15.6368 323.983 15.7529 323.937 15.8725 323.895C16.0238 323.838 16.1857 323.937 16.235 324.12C16.3159 324.419 16.4004 324.722 16.4813 325.021C16.5306 325.2 16.4461 325.394 16.2948 325.454H16.2983Z" fill="#3475D4"/>
<path d="M19.1065 324.391C18.9658 324.444 18.825 324.5 18.6807 324.553C18.547 324.602 18.4062 324.514 18.364 324.356C18.276 324.028 18.1846 323.698 18.0966 323.37C18.0543 323.212 18.1247 323.043 18.2584 322.99C18.3992 322.937 18.54 322.881 18.6807 322.828C18.8145 322.779 18.9552 322.864 19.001 323.025C19.0925 323.353 19.1804 323.683 19.2684 324.011C19.3106 324.169 19.2403 324.338 19.1065 324.391Z" fill="#3475D4"/>
<path d="M21.8619 323.339C21.7317 323.388 21.605 323.437 21.4748 323.486C21.3305 323.543 21.1792 323.448 21.1299 323.275C21.0455 322.962 20.9575 322.645 20.873 322.332C20.8273 322.16 20.9047 321.977 21.0455 321.92C21.1757 321.871 21.3023 321.822 21.4325 321.773C21.5768 321.716 21.7281 321.811 21.7774 321.984C21.8654 322.297 21.9498 322.614 22.0343 322.927C22.0801 323.099 22.0026 323.282 21.8619 323.339Z" fill="#3475D4"/>
<path d="M24.6349 322.269C24.5047 322.322 24.371 322.371 24.2408 322.424C24.1 322.476 23.9487 322.385 23.9029 322.216C23.815 321.896 23.727 321.579 23.639 321.259C23.5933 321.09 23.6671 320.907 23.8079 320.854C23.9381 320.801 24.0718 320.752 24.2021 320.699C24.3428 320.643 24.4941 320.738 24.5399 320.907C24.6279 321.227 24.7158 321.547 24.8038 321.864C24.8495 322.033 24.7756 322.216 24.6349 322.269Z" fill="#3475D4"/>
<path d="M27.4397 321.178C27.2849 321.238 27.13 321.298 26.9752 321.361C26.8555 321.407 26.7218 321.326 26.6831 321.181C26.5881 320.833 26.4931 320.485 26.3981 320.136C26.3558 319.988 26.4227 319.834 26.5424 319.784C26.6972 319.725 26.852 319.665 27.0069 319.601C27.1265 319.556 27.2602 319.633 27.299 319.781C27.394 320.129 27.489 320.478 27.5875 320.826C27.6262 320.974 27.5629 321.129 27.4397 321.178Z" fill="#3475D4"/>
<path d="M30.1951 320.094C30.0473 320.15 29.903 320.21 29.7552 320.267C29.6285 320.316 29.4913 320.231 29.449 320.076C29.3575 319.735 29.2625 319.397 29.1675 319.059C29.1253 318.905 29.1922 318.739 29.3224 318.686C29.4702 318.63 29.6144 318.57 29.7622 318.514C29.8889 318.465 30.0262 318.549 30.0719 318.704C30.1669 319.045 30.2584 319.383 30.3534 319.725C30.3957 319.879 30.3288 320.048 30.1986 320.098L30.1951 320.094Z" fill="#3475D4"/>
<path d="M32.9539 319.003C32.8096 319.06 32.6689 319.116 32.5246 319.172C32.3944 319.225 32.2536 319.137 32.2079 318.979C32.1164 318.644 32.0214 318.306 31.9299 317.972C31.8841 317.814 31.9545 317.641 32.0847 317.589C32.2255 317.532 32.3698 317.476 32.514 317.42C32.6442 317.367 32.785 317.455 32.8307 317.613C32.9222 317.947 33.0173 318.285 33.1088 318.623C33.1545 318.782 33.0841 318.954 32.9504 319.007L32.9539 319.003Z" fill="#3475D4"/>
<path d="M35.8396 317.852C35.6179 317.94 35.3927 318.032 35.171 318.12C35.1112 318.081 35.076 318.06 35.0161 318.025C34.8965 317.589 34.7769 317.156 34.6537 316.719C34.6818 316.645 34.6994 316.603 34.7311 316.529C34.9528 316.441 35.178 316.35 35.3997 316.262C35.4595 316.301 35.4947 316.322 35.5546 316.357C35.6742 316.793 35.7974 317.226 35.917 317.662C35.8853 317.736 35.8713 317.779 35.8396 317.852Z" fill="#3475D4"/>
<path d="M38.5352 316.769C38.3557 316.839 38.1798 316.913 38.0003 316.983C37.8983 317.026 37.7892 316.955 37.754 316.832C37.6484 316.448 37.5429 316.068 37.4373 315.685C37.4021 315.562 37.4549 315.428 37.5569 315.386C37.7364 315.312 37.9124 315.241 38.0918 315.167C38.1939 315.125 38.303 315.196 38.3382 315.319C38.4437 315.702 38.5493 316.082 38.6549 316.466C38.6901 316.589 38.6338 316.723 38.5352 316.765V316.769Z" fill="#3475D4"/>
<path d="M41.2869 315.65C41.1145 315.72 40.9421 315.79 40.7696 315.861C40.6641 315.903 40.5479 315.833 40.5127 315.702C40.4072 315.326 40.3051 314.949 40.1996 314.576C40.1644 314.446 40.2207 314.305 40.3262 314.263C40.4987 314.193 40.6711 314.122 40.8435 314.052C40.9491 314.01 41.0652 314.08 41.1004 314.21C41.206 314.587 41.3081 314.963 41.4136 315.34C41.4488 315.47 41.3925 315.611 41.2869 315.653V315.65Z" fill="#3475D4"/>
<path d="M44.0635 314.513C43.8805 314.59 43.694 314.664 43.511 314.742C43.416 314.78 43.3104 314.717 43.2787 314.597C43.1696 314.203 43.0606 313.813 42.9515 313.422C42.9198 313.302 42.9691 313.176 43.0641 313.137C43.2471 313.06 43.4336 312.986 43.6166 312.908C43.7116 312.869 43.8172 312.933 43.8488 313.052C43.9579 313.447 44.067 313.837 44.1761 314.231C44.2078 314.351 44.1585 314.478 44.0635 314.516V314.513Z" fill="#3475D4"/>
<path d="M46.7767 313.394C46.6254 313.457 46.4705 313.521 46.3192 313.584C46.1961 313.633 46.0659 313.552 46.0236 313.401C45.9251 313.045 45.8266 312.694 45.728 312.338C45.6858 312.187 45.7491 312.025 45.8723 311.972C46.0236 311.909 46.1785 311.845 46.3298 311.782C46.4494 311.733 46.5832 311.814 46.6254 311.965C46.7239 312.321 46.8225 312.676 46.921 313.028C46.9632 313.179 46.8999 313.345 46.7767 313.394Z" fill="#3475D4"/>
<path d="M61.1204 305.733C60.9973 305.74 60.8776 305.743 60.7545 305.75C60.4483 305.768 60.1668 305.553 60.0647 305.209C59.9345 304.786 60.121 304.315 60.4765 304.153C60.5187 304.132 60.5644 304.114 60.6067 304.093C61.7363 303.583 62.704 302.661 63.3656 301.464C63.3726 301.457 63.3797 301.443 63.3832 301.436C63.3973 301.411 63.4113 301.39 63.4254 301.366C64.0307 301.7 64.5796 302.119 65.0582 302.611C65.1638 302.611 62.8166 305.634 61.1204 305.733Z" fill="#3475D4"/>
<path d="M6.21279 335.243C6.21983 335.279 22.6854 329.279 30.2936 326.562C30.3815 327.466 29.4208 328.807 29.4208 328.807C18.3394 341.409 6.9342 353.437 -4.749 364.884C-7.3918 365.261 -10.0381 365.634 -12.6809 365.996C-6.16365 356.013 0.142456 345.758 6.21279 335.243Z" fill="url(#paint48_linear_175_3908)"/>
<defs>
<linearGradient id="paint0_linear_175_3908" x1="27.3365" y1="434.37" x2="49.0349" y2="509.326" gradientUnits="userSpaceOnUse">
<stop stop-color="#FF8868"/>
<stop offset="1" stop-color="#FF9982"/>
</linearGradient>
<linearGradient id="paint1_linear_175_3908" x1="-9.74254" y1="410.336" x2="-9.74254" y2="621.348" gradientUnits="userSpaceOnUse">
<stop stop-color="#00A3BE"/>
<stop offset="1" stop-color="#008DC3"/>
</linearGradient>
<linearGradient id="paint2_linear_175_3908" x1="277.483" y1="325.71" x2="318.209" y2="603.756" gradientUnits="userSpaceOnUse">
<stop stop-color="#17A2EE"/>
<stop offset="0.43" stop-color="#2CB4F4"/>
<stop offset="1" stop-color="#46CAFC"/>
</linearGradient>
<linearGradient id="paint3_linear_175_3908" x1="336.372" y1="431.183" x2="429.053" y2="455.056" gradientUnits="userSpaceOnUse">
<stop stop-color="#FFF2C6"/>
<stop offset="0.14" stop-color="#FFE8B6"/>
<stop offset="0.72" stop-color="#FFC375"/>
<stop offset="1" stop-color="#FFB55C"/>
</linearGradient>
<linearGradient id="paint4_linear_175_3908" x1="327.423" y1="561.936" x2="353.637" y2="517.002" gradientUnits="userSpaceOnUse">
<stop stop-color="#99EFFF"/>
<stop offset="0.5" stop-color="#7CE2FF"/>
<stop offset="1" stop-color="#63D8FF"/>
</linearGradient>
<linearGradient id="paint5_linear_175_3908" x1="263" y1="547" x2="268.281" y2="588.873" gradientUnits="userSpaceOnUse">
<stop stop-color="#5944DD"/>
<stop offset="1" stop-color="#100B2F"/>
</linearGradient>
<linearGradient id="paint6_linear_175_3908" x1="293.204" y1="470.536" x2="387.089" y2="564.421" gradientUnits="userSpaceOnUse">
<stop stop-color="#FFDEF1"/>
<stop offset="0.34" stop-color="#FFB0BB"/>
<stop offset="0.79" stop-color="#FF797B"/>
<stop offset="1" stop-color="#FF6462"/>
</linearGradient>
<linearGradient id="paint7_linear_175_3908" x1="342.286" y1="318.394" x2="343.764" y2="256.329" gradientUnits="userSpaceOnUse">
<stop stop-color="#FF9D7C"/>
<stop offset="0.57" stop-color="#FFC496"/>
<stop offset="1" stop-color="#FFDEA8"/>
</linearGradient>
<linearGradient id="paint8_linear_175_3908" x1="343.665" y1="237.801" x2="343.665" y2="311.543" gradientUnits="userSpaceOnUse">
<stop stop-color="#FF795C"/>
<stop offset="0.35" stop-color="#FF695A"/>
<stop offset="1" stop-color="#FF5057"/>
</linearGradient>
<linearGradient id="paint9_linear_175_3908" x1="342.286" y1="318.394" x2="343.764" y2="256.329" gradientUnits="userSpaceOnUse">
<stop stop-color="#FF9D7C"/>
<stop offset="0.57" stop-color="#FFC496"/>
<stop offset="1" stop-color="#FFDEA8"/>
</linearGradient>
<linearGradient id="paint10_linear_175_3908" x1="193.087" y1="433.662" x2="191.911" y2="473.037" gradientUnits="userSpaceOnUse">
<stop stop-color="#FFB297"/>
<stop offset="0.46" stop-color="#FFCAAB"/>
<stop offset="1" stop-color="#FFE4C1"/>
</linearGradient>
<linearGradient id="paint11_linear_175_3908" x1="205.899" y1="426.004" x2="213.174" y2="456.202" gradientUnits="userSpaceOnUse">
<stop stop-color="#8638EA"/>
<stop offset="1" stop-color="#C292FF"/>
</linearGradient>
<linearGradient id="paint12_linear_175_3908" x1="194.298" y1="569.33" x2="215.448" y2="592.83" gradientUnits="userSpaceOnUse">
<stop stop-color="#FF7620"/>
<stop offset="0.48" stop-color="#FF900F"/>
<stop offset="1" stop-color="#FFAA00"/>
</linearGradient>
<linearGradient id="paint13_linear_175_3908" x1="239.67" y1="571.701" x2="263.727" y2="592.211" gradientUnits="userSpaceOnUse">
<stop stop-color="#FF7620"/>
<stop offset="0.48" stop-color="#FF900F"/>
<stop offset="1" stop-color="#FFAA00"/>
</linearGradient>
<linearGradient id="paint14_linear_175_3908" x1="202.508" y1="454.75" x2="235.038" y2="543.472" gradientUnits="userSpaceOnUse">
<stop stop-color="#8EA8D1"/>
<stop offset="1" stop-color="#EBEBEB"/>
</linearGradient>
<linearGradient id="paint15_linear_175_3908" x1="228.461" y1="438.362" x2="274.258" y2="570.579" gradientUnits="userSpaceOnUse">
<stop stop-color="#8EA8D1"/>
<stop offset="0.03" stop-color="#90AAD1"/>
<stop offset="0.69" stop-color="#D1D8E3"/>
<stop offset="1" stop-color="#EBEBEB"/>
</linearGradient>
<linearGradient id="paint16_linear_175_3908" x1="228.785" y1="387.969" x2="241.415" y2="470.473" gradientUnits="userSpaceOnUse">
<stop stop-color="#8638EA"/>
<stop offset="1" stop-color="#C292FF"/>
</linearGradient>
<linearGradient id="paint17_linear_175_3908" x1="262.328" y1="453.038" x2="263.551" y2="473.743" gradientUnits="userSpaceOnUse">
<stop stop-color="#FFB297"/>
<stop offset="0.46" stop-color="#FFCAAB"/>
<stop offset="1" stop-color="#FFE4C1"/>
</linearGradient>
<linearGradient id="paint18_linear_175_3908" x1="251.292" y1="393.662" x2="272.198" y2="475.475" gradientUnits="userSpaceOnUse">
<stop stop-color="#8638EA"/>
<stop offset="1" stop-color="#C292FF"/>
</linearGradient>
<linearGradient id="paint19_linear_175_3908" x1="184.892" y1="444.082" x2="199.225" y2="473.243" gradientUnits="userSpaceOnUse">
<stop stop-color="#2E1B00"/>
<stop offset="0.67" stop-color="#6B3007"/>
<stop offset="1" stop-color="#853A0B"/>
</linearGradient>
<linearGradient id="paint20_linear_175_3908" x1="189.91" y1="581.17" x2="199.912" y2="595.259" gradientUnits="userSpaceOnUse">
<stop stop-color="#2E1B00"/>
<stop offset="0.67" stop-color="#6B3007"/>
<stop offset="1" stop-color="#853A0B"/>
</linearGradient>
<linearGradient id="paint21_linear_175_3908" x1="180.483" y1="587.865" x2="190.483" y2="601.951" gradientUnits="userSpaceOnUse">
<stop stop-color="#2E1B00"/>
<stop offset="0.67" stop-color="#6B3007"/>
<stop offset="1" stop-color="#853A0B"/>
</linearGradient>
<linearGradient id="paint22_linear_175_3908" x1="183.286" y1="469.61" x2="184.233" y2="604.387" gradientUnits="userSpaceOnUse">
<stop stop-color="#E3FF49"/>
<stop offset="0.739583" stop-color="#C3E11A"/>
<stop offset="1" stop-color="#C3E11A"/>
</linearGradient>
<linearGradient id="paint23_linear_175_3908" x1="225.97" y1="364.605" x2="227.807" y2="364.814" gradientUnits="userSpaceOnUse">
<stop stop-color="#FFBB9C"/>
<stop offset="0.08" stop-color="#FFC1A4"/>
<stop offset="0.71" stop-color="#FFEDE5"/>
<stop offset="1" stop-color="white"/>
</linearGradient>
<radialGradient id="paint24_radial_175_3908" cx="0" cy="0" r="1" gradientUnits="userSpaceOnUse" gradientTransform="translate(245.1 364.22) rotate(175.46) scale(2.26274 2.24011)">
<stop stop-color="#FFBB9C"/>
<stop offset="0.08" stop-color="#FFC1A4"/>
<stop offset="0.71" stop-color="#FFEDE5"/>
<stop offset="1" stop-color="white"/>
</radialGradient>
<radialGradient id="paint25_radial_175_3908" cx="0" cy="0" r="1" gradientUnits="userSpaceOnUse" gradientTransform="translate(254.177 364.461) rotate(175.46) scale(2.26274 2.24011)">
<stop stop-color="#FFBB9C"/>
<stop offset="0.08" stop-color="#FFC1A4"/>
<stop offset="0.71" stop-color="#FFEDE5"/>
<stop offset="1" stop-color="white"/>
</radialGradient>
<linearGradient id="paint26_linear_175_3908" x1="64" y1="565" x2="60" y2="588.5" gradientUnits="userSpaceOnUse">
<stop stop-color="#4B3BA8"/>
<stop offset="1" stop-color="#100B2F"/>
</linearGradient>
<linearGradient id="paint27_linear_175_3908" x1="168.641" y1="375.987" x2="154.635" y2="474.657" gradientUnits="userSpaceOnUse">
<stop stop-color="#B44B00"/>
<stop offset="0.31" stop-color="#BC550C"/>
<stop offset="1" stop-color="#CC6926"/>
</linearGradient>
<linearGradient id="paint28_linear_175_3908" x1="152.594" y1="463.534" x2="142.508" y2="574.932" gradientUnits="userSpaceOnUse">
<stop stop-color="#FFB297"/>
<stop offset="0.46" stop-color="#FFCAAB"/>
<stop offset="1" stop-color="#FFE4C1"/>
</linearGradient>
<linearGradient id="paint29_linear_175_3908" x1="128.981" y1="461.394" x2="118.892" y2="572.796" gradientUnits="userSpaceOnUse">
<stop stop-color="#FFB297"/>
<stop offset="0.46" stop-color="#FFCAAB"/>
<stop offset="1" stop-color="#FFE4C1"/>
</linearGradient>
<linearGradient id="paint30_linear_175_3908" x1="121.915" y1="437.172" x2="132.208" y2="492.499" gradientUnits="userSpaceOnUse">
<stop stop-color="#252455"/>
<stop offset="0.09" stop-color="#272657"/>
<stop offset="1" stop-color="#3C4070"/>
</linearGradient>
<linearGradient id="paint31_linear_175_3908" x1="132.131" y1="461.795" x2="133.007" y2="487.674" gradientUnits="userSpaceOnUse">
<stop stop-color="#252455"/>
<stop offset="0.09" stop-color="#272657"/>
<stop offset="1" stop-color="#3C4070"/>
</linearGradient>
<linearGradient id="paint32_linear_175_3908" x1="139.978" y1="432.573" x2="150.673" y2="490.053" gradientUnits="userSpaceOnUse">
<stop stop-color="#252455"/>
<stop offset="0.09" stop-color="#272657"/>
<stop offset="1" stop-color="#3C4070"/>
</linearGradient>
<linearGradient id="paint33_linear_175_3908" x1="102.87" y1="565.895" x2="126.391" y2="592.031" gradientUnits="userSpaceOnUse">
<stop stop-color="#FF7620"/>
<stop offset="0.48" stop-color="#FF900F"/>
<stop offset="1" stop-color="#FFAA00"/>
</linearGradient>
<linearGradient id="paint34_linear_175_3908" x1="133.719" y1="569.261" x2="160.787" y2="591.704" gradientUnits="userSpaceOnUse">
<stop stop-color="#FF7620"/>
<stop offset="0.48" stop-color="#FF900F"/>
<stop offset="1" stop-color="#FFAA00"/>
</linearGradient>
<linearGradient id="paint35_linear_175_3908" x1="117.298" y1="409.481" x2="73.7326" y2="396.471" gradientUnits="userSpaceOnUse">
<stop stop-color="#FFB297"/>
<stop offset="0.46" stop-color="#FFCAAB"/>
<stop offset="1" stop-color="#FFE4C1"/>
</linearGradient>
<linearGradient id="paint36_linear_175_3908" x1="115.237" y1="366.969" x2="115.575" y2="422.558" gradientUnits="userSpaceOnUse">
<stop stop-color="#E3FF49"/>
<stop offset="0.739583" stop-color="#C3E11A"/>
<stop offset="1" stop-color="#C3E11A"/>
</linearGradient>
<linearGradient id="paint37_linear_175_3908" x1="118.534" y1="378.954" x2="123.97" y2="421.872" gradientUnits="userSpaceOnUse">
<stop stop-color="#B44B00"/>
<stop offset="0.31" stop-color="#BC550C"/>
<stop offset="1" stop-color="#CC6926"/>
</linearGradient>
<linearGradient id="paint38_linear_175_3908" x1="147.78" y1="409.333" x2="131.698" y2="435.065" gradientUnits="userSpaceOnUse">
<stop stop-color="#FFB297"/>
<stop offset="0.46" stop-color="#FFCAAB"/>
<stop offset="1" stop-color="#FFE4C1"/>
</linearGradient>
<linearGradient id="paint39_linear_175_3908" x1="142.581" y1="367.727" x2="132.7" y2="361.321" gradientUnits="userSpaceOnUse">
<stop stop-color="#FFB297"/>
<stop offset="0.46" stop-color="#FFCAAB"/>
<stop offset="1" stop-color="#FFE4C1"/>
</linearGradient>
<radialGradient id="paint40_radial_175_3908" cx="0" cy="0" r="1" gradientUnits="userSpaceOnUse" gradientTransform="translate(337.061 337.181) rotate(170.13) scale(1.97157 2.09819)">
<stop stop-color="#FFBB9C"/>
<stop offset="0.08" stop-color="#FFC1A4"/>
<stop offset="0.71" stop-color="#FFEDE5"/>
<stop offset="1" stop-color="white"/>
</radialGradient>
<radialGradient id="paint41_radial_175_3908" cx="0" cy="0" r="1" gradientUnits="userSpaceOnUse" gradientTransform="translate(355.098 333.539) rotate(170.13) scale(1.99843 2.05343)">
<stop stop-color="#FFBB9C"/>
<stop offset="0.08" stop-color="#FFC1A4"/>
<stop offset="0.71" stop-color="#FFEDE5"/>
<stop offset="1" stop-color="white"/>
</radialGradient>
<linearGradient id="paint42_linear_175_3908" x1="144.342" y1="365.008" x2="134.462" y2="358.602" gradientUnits="userSpaceOnUse">
<stop stop-color="#FFB297"/>
<stop offset="0.46" stop-color="#FFCAAB"/>
<stop offset="1" stop-color="#FFE4C1"/>
</linearGradient>
<linearGradient id="paint43_linear_175_3908" x1="154.476" y1="365.136" x2="154.733" y2="422.959" gradientUnits="userSpaceOnUse">
<stop stop-color="#E3FF49"/>
<stop offset="0.739583" stop-color="#C3E11A"/>
<stop offset="1" stop-color="#C3E11A"/>
</linearGradient>
<linearGradient id="paint44_linear_175_3908" x1="142.945" y1="375.449" x2="148.501" y2="419.31" gradientUnits="userSpaceOnUse">
<stop stop-color="#B44B00"/>
<stop offset="0.31" stop-color="#BC550C"/>
<stop offset="1" stop-color="#CC6926"/>
</linearGradient>
<linearGradient id="paint45_linear_175_3908" x1="-17.5327" y1="317.708" x2="14.0746" y2="316.444" gradientUnits="userSpaceOnUse">
<stop stop-color="#82D5FC"/>
<stop offset="0.37" stop-color="#69B2FB"/>
<stop offset="0.99" stop-color="#3B71FA"/>
</linearGradient>
<linearGradient id="paint46_linear_175_3908" x1="-51.6514" y1="331.441" x2="73.1534" y2="318.697" gradientUnits="userSpaceOnUse">
<stop stop-color="#82D5FC"/>
<stop offset="0.37" stop-color="#69B2FB"/>
<stop offset="0.99" stop-color="#3B71FA"/>
</linearGradient>
<linearGradient id="paint47_linear_175_3908" x1="22.8068" y1="330.669" x2="24.7058" y2="341.347" gradientUnits="userSpaceOnUse">
<stop stop-color="#82D5FC"/>
<stop offset="0.37" stop-color="#69B2FB"/>
<stop offset="0.99" stop-color="#3B71FA"/>
</linearGradient>
<linearGradient id="paint48_linear_175_3908" x1="-13.4382" y1="347.173" x2="31.0455" y2="345.394" gradientUnits="userSpaceOnUse">
<stop stop-color="#82D5FC"/>
<stop offset="0.37" stop-color="#69B2FB"/>
<stop offset="0.99" stop-color="#3B71FA"/>
</linearGradient>
</defs>
</svg>
