<svg width="73" height="20" viewBox="0 0 73 20" fill="none" xmlns="http://www.w3.org/2000/svg">
<g clip-path="url(#clip0_804_2560)">
<path d="M5.20669 16.2011C3.6201 16.2011 2.34636 15.5531 1.40782 14.257C0.469272 12.9609 0 11.0614 0 8.56983C0 6.07821 0.469272 4.16759 1.40782 2.88268C2.34636 1.58659 3.60893 0.938542 5.20669 0.938542C6.13406 0.938542 6.9497 1.16201 7.64243 1.60893C8.33517 2.05586 8.92734 2.70391 9.38544 3.56424H12.7486V0.379883H15.6089V19.486H12.7486V13.4525H9.44131C8.98321 14.3575 8.40221 15.0503 7.68712 15.5084C6.97204 15.9665 6.14523 16.2011 5.20669 16.2011ZM5.20669 3.36312C4.46926 3.36312 3.88825 3.7877 3.47485 4.63687C3.06144 5.48603 2.86033 6.79329 2.86033 8.56983C2.86033 10.3464 3.06144 11.6536 3.47485 12.5028C3.88825 13.3519 4.45809 13.7765 5.20669 13.7765C5.95529 13.7765 6.52512 13.3519 6.93852 12.5028C7.35193 11.6536 7.55305 10.3464 7.55305 8.56983C7.55305 6.79329 7.35193 5.48603 6.93852 4.63687C6.52512 3.7877 5.95529 3.36312 5.20669 3.36312ZM10.4134 8.56983C10.4134 9.02793 10.391 9.46368 10.3575 9.87709C10.324 10.3017 10.2681 10.6927 10.2011 11.0614H12.7597V5.94413H10.1787C10.3352 6.77094 10.4134 7.64245 10.4134 8.56983Z" fill="black"/>
<path d="M18.0332 4.03352V1.68715H21.3405V0H24.2008V1.68715H27.2957V4.03352H18.0444H18.0332ZM22.6812 4.61453C23.3181 4.61453 23.8991 4.70391 24.4242 4.88268C24.9494 5.06145 25.3963 5.30726 25.765 5.63128C26.1337 5.95531 26.4242 6.3352 26.6254 6.77095C26.8265 7.2067 26.9382 7.69832 26.9382 8.24581C26.9382 8.7933 26.8376 9.27374 26.6254 9.72067C26.4242 10.1564 26.1337 10.5363 25.765 10.8603C25.3963 11.1844 24.9494 11.4302 24.4242 11.6089C23.8991 11.7877 23.3181 11.8771 22.6812 11.8771C22.0444 11.8771 21.4634 11.7877 20.9382 11.6089C20.4131 11.4302 19.9662 11.1844 19.5974 10.8603C19.2287 10.5363 18.9382 10.1564 18.7371 9.72067C18.536 9.28492 18.4243 8.7933 18.4243 8.24581C18.4243 7.69832 18.5248 7.21788 18.7371 6.77095C18.9382 6.3352 19.2287 5.95531 19.5974 5.63128C19.9662 5.30726 20.4131 5.06145 20.9382 4.88268C21.4634 4.70391 22.0444 4.61453 22.6812 4.61453ZM27.9661 20.0112C26.8712 20.0112 25.8768 19.933 24.9941 19.7654C24.1114 19.5978 23.3516 19.3631 22.7259 19.0503C22.1002 18.7374 21.6198 18.3464 21.2734 17.8883C20.927 17.4302 20.7595 16.8939 20.7595 16.3017C20.7595 15.7095 20.927 15.1508 21.2734 14.6927C21.6198 14.2346 22.1002 13.8436 22.7259 13.5307C23.3516 13.2179 24.1114 12.9832 24.9941 12.8156C25.8879 12.648 26.8712 12.5698 27.9661 12.5698C29.0611 12.5698 30.0555 12.648 30.9382 12.8156C31.832 12.9832 32.5806 13.2179 33.2063 13.5307C33.832 13.8436 34.3125 14.2346 34.6588 14.6927C35.0052 15.1508 35.1728 15.6872 35.1728 16.3017C35.1728 16.9162 35.0052 17.4302 34.6588 17.8883C34.3125 18.3464 33.832 18.7374 33.2063 19.0503C32.5806 19.3631 31.8209 19.5978 30.9382 19.7654C30.0555 19.933 29.0611 20.0112 27.9661 20.0112ZM22.6812 9.60894C23.1729 9.60894 23.5527 9.48603 23.7985 9.24022C24.0444 8.99441 24.1673 8.65922 24.1673 8.24581C24.1673 7.8324 24.0444 7.50838 23.7985 7.2514C23.5527 7.00559 23.1729 6.88268 22.6812 6.88268C22.1896 6.88268 21.8097 7.00559 21.5639 7.2514C21.3181 7.49721 21.1952 7.8324 21.1952 8.24581C21.1952 8.65922 21.3181 8.98324 21.5639 9.24022C21.8097 9.49721 22.1896 9.60894 22.6812 9.60894ZM27.9661 14.9162C26.5024 14.9162 25.4298 15.0279 24.7371 15.2737C24.0444 15.5084 23.698 15.8547 23.698 16.3128C23.698 16.771 24.0444 17.095 24.7371 17.3296C25.4298 17.5642 26.5024 17.676 27.9661 17.676C29.4298 17.676 30.5024 17.5642 31.1952 17.3296C31.8879 17.095 32.2343 16.7598 32.2343 16.3128C32.2343 15.8659 31.8879 15.5084 31.1952 15.2737C30.5024 15.0391 29.4298 14.9162 27.9661 14.9162ZM32.022 12.6145V7.79888H30.7818V11.7654H28.0555V0.592179H30.7818V5.30726H32.022V0.379888H34.7929V12.5922H32.022V12.6145Z" fill="black"/>
<path d="M38.3125 3.69823V1.27365H49.2287V3.70941H38.3125V3.69823ZM50.7817 19.363V0.268066H53.6421V6.91611H56.3236V9.38539H53.6421V19.363H50.7817Z" fill="black"/>
<path d="M60.0223 7.27365H66.5251V9.68706H60.0223V13.5865H61.8994C63.0614 13.5865 64.2011 13.5642 65.3184 13.5195C66.4357 13.4748 67.5754 13.363 68.7485 13.1731V15.5418C67.6536 15.7429 66.5139 15.877 65.3184 15.944C64.1229 16.0111 62.9832 16.0446 61.8994 16.0446H57.1396V1.15075H66.7932V3.60885H60.0335V7.27365H60.0223ZM69.4972 19.5753V0.268066H72.3798V19.5642H69.4972V19.5753Z" fill="black"/>
<path d="M49.1838 16.212C49.1838 16.212 49.1838 16.212 49.1726 16.2009C49.0944 16.1226 49.005 16.0444 48.9156 15.9662C48.6922 15.7539 48.4687 15.5305 48.2564 15.307C48.1 15.1506 47.9659 14.983 47.8207 14.8154C48.0106 14.4914 48.1782 14.1673 48.3235 13.8433C48.8598 12.6701 49.1503 11.4634 49.2397 10.1785C49.3179 8.99416 49.2955 7.60868 48.9156 6.46902C48.5246 5.28466 47.3849 4.27907 46.0665 4.59192C44.8598 4.88243 44.3011 6.06678 43.9995 7.15058C43.8877 7.54164 43.8207 7.9327 43.7537 8.33494C43.709 7.69807 43.6084 7.07237 43.4185 6.51371C43.0274 5.32935 41.8877 4.32377 40.5693 4.63662C39.3626 4.92712 38.804 6.11148 38.5023 7.19527C37.8431 9.55282 38.1224 12.0891 39.1615 14.2791C39.2732 14.5249 39.4073 14.7483 39.5526 14.9718C39.0721 15.5305 38.4911 15.9886 37.8207 16.1897C36.4464 16.5919 37.0386 18.7372 38.4352 18.3349C39.4185 18.0444 40.2565 17.4523 40.9715 16.7037C41.4632 17.24 41.9771 17.7875 42.5805 18.1897C42.8822 18.3908 43.1838 18.4132 43.4408 18.3238C43.5861 18.3461 43.7537 18.3349 43.9324 18.2902C44.9157 17.9997 45.7537 17.4076 46.4687 16.659C46.9604 17.1953 47.4743 17.7428 48.0777 18.145C49.2844 18.9383 50.3905 16.9942 49.195 16.212H49.1838ZM46.5693 6.75952C46.614 6.73717 46.6475 6.63662 46.5693 6.75952V6.75952ZM46.3235 7.19527C46.3793 7.0612 46.4464 6.94946 46.5246 6.82656C46.5358 6.80421 46.5358 6.80421 46.5469 6.79304C46.6698 6.91595 46.7592 7.0612 46.8039 7.25114C47.2732 8.8936 47.0944 10.9942 46.4464 12.5584C46.4464 12.5807 46.424 12.6143 46.4129 12.6366C46.3682 12.5249 46.3011 12.4132 46.2676 12.2902C45.9995 11.4746 45.8654 10.6366 45.8654 9.77628C45.8654 8.91595 45.9883 7.99974 46.3123 7.19527H46.3235ZM41.0833 6.80421C41.128 6.78187 41.1615 6.68131 41.0833 6.80421V6.80421ZM40.7928 12.3349C40.5246 11.5193 40.3905 10.6813 40.3905 9.82097C40.3905 8.96064 40.5134 8.04444 40.8375 7.23997C40.8933 7.10589 40.9604 6.99416 41.0386 6.87125C41.0498 6.84891 41.0498 6.84891 41.0609 6.83773C41.1838 6.96064 41.2732 7.10589 41.3179 7.29583C41.7872 8.93829 41.6084 11.0388 40.9604 12.6031C40.9604 12.6254 40.938 12.659 40.9269 12.6813C40.8822 12.5696 40.8151 12.4578 40.7816 12.3349H40.7928ZM43.4967 16.0668C43.4967 16.0668 43.452 16.0221 43.4296 16.0109C43.2062 15.7986 42.9827 15.5752 42.7704 15.3517C42.614 15.1953 42.4799 15.0277 42.3347 14.8601C42.5246 14.5361 42.6922 14.212 42.8375 13.888C43.2956 12.8824 43.5637 11.8321 43.6978 10.7483C43.8095 11.9551 44.1447 13.1394 44.6587 14.2456C44.7704 14.4914 44.9045 14.7148 45.0497 14.9383C44.614 15.4523 44.0889 15.8657 43.4967 16.078V16.0668Z" fill="#8638EA"/>
</g>
<defs>
<clipPath id="clip0_804_2560">
<rect width="72.3796" height="20" fill="white"/>
</clipPath>
</defs>
</svg>
