<svg width="56" height="56" viewBox="0 0 56 56" fill="none" xmlns="http://www.w3.org/2000/svg">
<g filter="url(#filter0_d_713_56974)">
<circle cx="26" cy="26" r="24" fill="white"/>
<circle cx="26" cy="26" r="23.5" stroke="#E2E2E2"/>
</g>
<mask id="path-3-inside-1_713_56974" fill="white">
<path fill-rule="evenodd" clip-rule="evenodd" d="M23.7733 16C18.928 16 15 19.928 15 24.7733C15 29.6187 18.928 33.5467 23.7733 33.5467H28.2267C28.3049 33.5467 28.3828 33.5457 28.4606 33.5436L28.8809 35.592C28.9747 36.0494 29.5834 36.1496 29.8067 35.7443L31.3288 32.9825C34.6432 31.7294 37 28.5266 37 24.7733C37 19.928 33.072 16 28.2267 16H23.7733Z"/>
</mask>
<path d="M28.4606 33.5436L29.9299 33.2421L29.6774 32.0113L28.4213 32.0442L28.4606 33.5436ZM28.8809 35.592L27.4115 35.8935L28.8809 35.592ZM29.8067 35.7443L28.493 35.0203L28.493 35.0203L29.8067 35.7443ZM31.3288 32.9825L30.7983 31.5794L30.2817 31.7748L30.0151 32.2585L31.3288 32.9825ZM16.5 24.7733C16.5 20.7564 19.7564 17.5 23.7733 17.5V14.5C18.0995 14.5 13.5 19.0995 13.5 24.7733H16.5ZM23.7733 32.0467C19.7564 32.0467 16.5 28.7903 16.5 24.7733H13.5C13.5 30.4472 18.0995 35.0467 23.7733 35.0467V32.0467ZM28.2267 32.0467H23.7733V35.0467H28.2267V32.0467ZM28.4213 32.0442C28.3567 32.0458 28.2918 32.0467 28.2267 32.0467V35.0467C28.318 35.0467 28.409 35.0455 28.4998 35.0431L28.4213 32.0442ZM30.3502 35.2905L29.9299 33.2421L26.9912 33.8451L27.4115 35.8935L30.3502 35.2905ZM28.493 35.0203C28.9772 34.1418 30.1782 34.4521 30.3502 35.2905L27.4115 35.8935C27.7712 37.6468 30.1896 38.1573 31.1204 36.4683L28.493 35.0203ZM30.0151 32.2585L28.493 35.0203L31.1204 36.4683L32.6425 33.7065L30.0151 32.2585ZM35.5 24.7733C35.5 27.8825 33.5485 30.5396 30.7983 31.5794L31.8593 34.3856C35.738 32.9191 38.5 29.1706 38.5 24.7733H35.5ZM28.2267 17.5C32.2436 17.5 35.5 20.7564 35.5 24.7733H38.5C38.5 19.0995 33.9005 14.5 28.2267 14.5V17.5ZM23.7733 17.5H28.2267V14.5H23.7733V17.5Z" fill="#AA67FF" mask="url(#path-3-inside-1_713_56974)"/>
<line x1="26.2256" y1="20.3867" x2="26.2256" y2="28.0634" stroke="#AA67FF" stroke-width="1.5"/>
<line x1="29.666" y1="24.4268" x2="22.3327" y2="24.4268" stroke="#AA67FF" stroke-width="1.5"/>
<defs>
<filter id="filter0_d_713_56974" x="0" y="0" width="56" height="56" filterUnits="userSpaceOnUse" color-interpolation-filters="sRGB">
<feFlood flood-opacity="0" result="BackgroundImageFix"/>
<feColorMatrix in="SourceAlpha" type="matrix" values="0 0 0 0 0 0 0 0 0 0 0 0 0 0 0 0 0 0 127 0" result="hardAlpha"/>
<feOffset dx="2" dy="2"/>
<feGaussianBlur stdDeviation="2"/>
<feComposite in2="hardAlpha" operator="out"/>
<feColorMatrix type="matrix" values="0 0 0 0 0 0 0 0 0 0 0 0 0 0 0 0 0 0 0.1 0"/>
<feBlend mode="normal" in2="BackgroundImageFix" result="effect1_dropShadow_713_56974"/>
<feBlend mode="normal" in="SourceGraphic" in2="effect1_dropShadow_713_56974" result="shape"/>
</filter>
</defs>
</svg>
