<svg width="360" height="80" viewBox="0 0 360 80" fill="none" xmlns="http://www.w3.org/2000/svg">
<rect width="360" height="80" rx="25" fill="white"/>
<g filter="url(#filter0_b_900_2691)">
<path d="M44.5 20C40.8095 20.0003 37.1948 21.0478 34.0759 23.0208C30.957 24.9938 28.462 27.8113 26.8808 31.1459C25.2995 34.4805 24.6969 38.1954 25.143 41.8589C25.5891 45.5223 27.0656 48.984 29.4008 51.8417L25.5714 55.6713C25.2986 55.944 25.1129 56.2915 25.0377 56.6697C24.9624 57.0479 25.001 57.44 25.1486 57.7963C25.2961 58.1526 25.5461 58.4571 25.8667 58.6714C26.1874 58.8856 26.5644 59 26.95 59H44.5C49.6717 59 54.6316 56.9455 58.2886 53.2886C61.9455 49.6316 64 44.6717 64 39.5C64 34.3283 61.9455 29.3684 58.2886 25.7114C54.6316 22.0545 49.6717 20 44.5 20Z" fill="url(#paint0_linear_900_2691)"/>
</g>
<g filter="url(#filter1_b_900_2691)">
<path d="M34.4901 35.7148C34.5634 35.7148 34.6251 35.7182 34.6751 35.7248C34.7251 35.7315 34.7701 35.7448 34.8101 35.7648C34.8501 35.7815 34.8884 35.8065 34.9251 35.8398C34.9618 35.8732 35.0034 35.9182 35.0501 35.9748L38.5101 40.3498C38.4968 40.2098 38.4868 40.0748 38.4801 39.9448C38.4734 39.8115 38.4701 39.6865 38.4701 39.5698V35.7148H39.9601V42.9998H39.0801C38.9501 42.9998 38.8401 42.9798 38.7501 42.9398C38.6601 42.8998 38.5734 42.8265 38.4901 42.7198L35.0551 38.3798C35.0651 38.5065 35.0734 38.6315 35.0801 38.7548C35.0868 38.8748 35.0901 38.9882 35.0901 39.0948V42.9998H33.6001V35.7148H34.4901Z" fill="white" fill-opacity="0.8"/>
<path d="M45.8487 35.7148V37.0148H42.8587V38.7148H45.1487V39.9648H42.8587V41.6998H45.8487V42.9998H41.1587V35.7148H45.8487Z" fill="white" fill-opacity="0.8"/>
<path d="M46.263 35.7148H47.683C47.8297 35.7148 47.9513 35.7482 48.048 35.8148C48.148 35.8815 48.213 35.9698 48.243 36.0798L49.243 39.8798C49.2763 40.0032 49.3097 40.1348 49.343 40.2748C49.3763 40.4148 49.4013 40.5615 49.418 40.7148C49.4513 40.5582 49.488 40.4115 49.528 40.2748C49.568 40.1348 49.6063 40.0032 49.643 39.8798L50.823 36.0798C50.853 35.9865 50.9163 35.9032 51.013 35.8298C51.113 35.7532 51.233 35.7148 51.373 35.7148H51.873C52.0197 35.7148 52.1397 35.7482 52.233 35.8148C52.3297 35.8782 52.3963 35.9665 52.433 36.0798L53.603 39.8798C53.6397 39.9965 53.678 40.1215 53.718 40.2548C53.758 40.3848 53.793 40.5248 53.823 40.6748C53.8497 40.5282 53.8763 40.3882 53.903 40.2548C53.933 40.1215 53.963 39.9965 53.993 39.8798L54.993 36.0798C55.0197 35.9832 55.083 35.8982 55.183 35.8248C55.283 35.7515 55.403 35.7148 55.543 35.7148H56.873L54.623 42.9998H53.093L51.723 38.4848C51.6997 38.4148 51.6747 38.3382 51.648 38.2548C51.6247 38.1715 51.6013 38.0832 51.578 37.9898C51.5547 38.0832 51.5297 38.1715 51.503 38.2548C51.4797 38.3382 51.4563 38.4148 51.433 38.4848L50.043 42.9998H48.513L46.263 35.7148Z" fill="white" fill-opacity="0.8"/>
</g>
<path d="M88.3936 22.4375V24.9297H89.8438V21.5244H90.6494V30.3867H89.8438V25.6279H88.3936V28.3027H84.7412V22.4375H88.3936ZM85.5361 27.626H87.5986V23.1143H85.5361V27.626ZM91.7559 30.8701V21.3203H92.5723V30.8701H91.7559ZM101.768 21.3203V30.8916H100.919V21.3203H101.768ZM94.248 25.3916C94.2534 23.3613 95.2632 22.0669 96.6865 22.0615C98.1045 22.0669 99.1304 23.3613 99.125 25.3916C99.1304 27.4272 98.1045 28.7163 96.6865 28.7109C95.2632 28.7163 94.2534 27.4272 94.248 25.3916ZM95.0645 25.3916C95.0645 26.9438 95.7305 27.9644 96.6865 27.959C97.6479 27.9644 98.3086 26.9438 98.3086 25.3916C98.3086 23.8394 97.6479 22.8188 96.6865 22.8135C95.7305 22.8188 95.0645 23.8394 95.0645 25.3916ZM111.135 26.4873V27.1748H104.528V22.1475H111.027V22.8564H105.388V24.2744H110.823V24.9512H105.388V26.4873H111.135ZM103.4 29.624V28.9258H112.145V29.624H103.4ZM123.553 21.3311V28.335H122.715V21.3311H123.553ZM115.765 26.2939C117.209 25.73 118.192 24.3335 118.192 22.8242V21.8682H119.052V22.8242C119.041 24.2798 120.035 25.585 121.458 26.1006L121.018 26.7773C119.911 26.353 119.052 25.4937 118.627 24.3926C118.214 25.5635 117.344 26.5034 116.227 26.9492L115.765 26.2939ZM117.387 30.666V27.6904H118.225V29.957H123.854V30.666H117.387ZM128.43 23.3721C128.435 24.5591 129.461 25.6333 130.868 26.0469L130.46 26.7021C129.354 26.3691 128.473 25.6494 128.038 24.7095C127.629 25.7515 126.754 26.5732 125.615 26.9492L125.207 26.3047C126.609 25.832 127.597 24.6665 127.603 23.3721V23.168H125.443V22.4912H127.603V21.2773H128.451V22.4912H130.589V23.168H128.43V23.3721ZM126.722 29.1084C126.716 27.9966 127.936 27.3628 129.923 27.3682C131.905 27.3628 133.124 27.9966 133.124 29.1084C133.124 30.2148 131.905 30.8486 129.923 30.8486C127.936 30.8486 126.716 30.2148 126.722 29.1084ZM127.56 29.1084C127.554 29.7744 128.457 30.1826 129.923 30.1826C131.389 30.1826 132.286 29.7744 132.286 29.1084C132.286 28.4263 131.389 28.0342 129.923 28.0234C128.457 28.0342 127.554 28.4263 127.56 29.1084ZM130.288 24.7578V24.0596H132.243V21.3203H133.092V27.1104H132.243V24.7578H130.288ZM144.908 21.3203V23.3936H146.348V24.1025H144.908V26.1865H144.07V21.3203H144.908ZM137.625 23.791C137.62 22.5396 138.672 21.6802 140.106 21.6748C141.546 21.6802 142.588 22.5396 142.588 23.791C142.588 25.0479 141.546 25.9126 140.106 25.918C138.672 25.9126 137.62 25.0479 137.625 23.791ZM138.452 23.791C138.447 24.6289 139.15 25.2305 140.106 25.2305C141.057 25.2305 141.766 24.6289 141.761 23.791C141.766 22.9639 141.057 22.373 140.106 22.3838C139.15 22.373 138.447 22.9639 138.452 23.791ZM138.817 27.3145V26.6377H144.908V28.9688H139.666V30.0645H145.263V30.7412H138.839V28.3242H144.07V27.3145H138.817ZM154.834 21.3311V26.9922H153.996V21.3311H154.834ZM147.433 22.5879V21.9111H151.794V24.5H148.271V25.8213C149.979 25.832 151.251 25.7783 152.804 25.5205L152.9 26.2295C151.294 26.4766 149.989 26.5303 148.228 26.5303H147.454V23.834H150.956V22.5879H147.433ZM148.625 30.7412V27.5078H154.834V30.7412H148.625ZM149.452 30.0537H154.007V28.1953H149.452V30.0537Z" fill="#8638EA"/>
<path d="M90.0791 42.3945V45.8662H91.4121V41.208H93.1699V53.7324H91.4121V47.3604H90.0791V50.9932H84.7764V42.3945H90.0791ZM86.5195 49.5283H88.3359V43.874H86.5195V49.5283ZM94.166 54.3477V41.0176H95.9531V54.3477H94.166ZM108.521 41.0176V54.377H106.632V41.0176H108.521ZM97.7549 46.7012C97.7476 43.7935 99.2344 41.9551 101.285 41.9551C103.292 41.9551 104.786 43.7935 104.786 46.7012C104.786 49.6309 103.292 51.4619 101.285 51.4619C99.2344 51.4619 97.7476 49.6309 97.7549 46.7012ZM99.5566 46.7012C99.5493 48.686 100.245 49.77 101.285 49.7627C102.296 49.77 102.977 48.686 102.984 46.7012C102.977 44.7236 102.296 43.6396 101.285 43.6396C100.245 43.6396 99.5493 44.7236 99.5566 46.7012ZM121.192 47.9023V49.3818H111.759V41.999H121.09V43.5078H113.663V44.9141H120.782V46.3789H113.663V47.9023H121.192ZM110.323 52.7949V51.2715H122.525V52.7949H110.323ZM137.906 41.0322V50.7588H136.031V41.0322H137.906ZM126.7 47.4629C128.934 46.7158 129.908 44.8628 129.908 43.0537V41.7646H131.856V43.0537C131.842 44.8188 132.787 46.54 134.977 47.2432L134.024 48.708C132.516 48.21 131.483 47.2139 130.89 45.9468C130.289 47.3091 129.227 48.4077 127.667 48.9424L126.7 47.4629ZM128.971 54.1133V49.8213H130.86V52.6191H138.258V54.1133H128.971ZM147.311 42.4092V43.874H144.615C144.637 45.2437 145.633 46.6353 147.779 47.1846L146.915 48.6201C145.392 48.2393 144.33 47.397 143.722 46.313C143.143 47.5435 142.074 48.5176 140.499 48.9717L139.62 47.5215C141.751 46.9062 142.74 45.3828 142.755 43.874H140.074V42.4092H142.755V40.959H144.645V42.4092H147.311ZM141.803 51.7988C141.803 50.2021 143.561 49.3013 146.388 49.2939C149.229 49.3013 150.98 50.2021 150.987 51.7988C150.98 53.4175 149.229 54.355 146.388 54.3477C143.561 54.355 141.803 53.4175 141.803 51.7988ZM143.663 51.7988C143.663 52.5312 144.623 52.9268 146.388 52.9268C148.189 52.9268 149.12 52.5312 149.127 51.7988C149.12 51.0884 148.189 50.7295 146.388 50.7295C144.623 50.7295 143.663 51.0884 143.663 51.7988ZM146.915 46.0859V44.5918H149.083V41.0176H150.943V49.0742H149.083V46.0859H146.915ZM163.834 41.0176V54.377H161.944V41.0176H163.834ZM153.067 46.7012C153.06 43.7935 154.547 41.9551 156.598 41.9551C158.604 41.9551 160.099 43.7935 160.099 46.7012C160.099 49.6309 158.604 51.4619 156.598 51.4619C154.547 51.4619 153.06 49.6309 153.067 46.7012ZM154.869 46.7012C154.862 48.686 155.558 49.77 156.598 49.7627C157.608 49.77 158.29 48.686 158.297 46.7012C158.29 44.7236 157.608 43.6396 156.598 43.6396C155.558 43.6396 154.862 44.7236 154.869 46.7012ZM181.28 46.2178V47.6826H169.093V46.2178H181.28ZM170.499 49.8799V48.4736H179.771V51.96H172.345V52.7803H180.123V54.2305H170.514V50.627H177.926V49.8799H170.499ZM170.616 45.4854V41.2812H179.728V42.7754H172.477V44.0205H179.83V45.4854H170.616ZM185.733 41.9551C187.535 41.9551 188.883 43.4346 189.146 45.8369H191.461V41.0176H193.307V54.377H191.461V47.3311H189.168C188.971 49.8945 187.594 51.4619 185.733 51.4619C183.712 51.4619 182.262 49.6309 182.276 46.7012C182.262 43.7935 183.712 41.9551 185.733 41.9551ZM184.063 46.7012C184.056 48.686 184.737 49.77 185.733 49.7627C186.737 49.77 187.403 48.686 187.403 46.7012C187.403 44.7236 186.737 43.6396 185.733 43.6396C184.737 43.6396 184.056 44.7236 184.063 46.7012ZM205.685 41.0322V44.2842H207.384V45.8076H205.685V49.0156H203.81V41.0322H205.685ZM194.991 47.3018C195.921 47.3018 196.998 47.2944 198.126 47.2651V46.3569C196.646 46.0859 195.672 45.1484 195.68 43.9033C195.672 42.3945 197.057 41.3398 199.034 41.3398C200.99 41.3398 202.381 42.3945 202.389 43.9033C202.381 45.1338 201.429 46.0566 200.001 46.3423V47.1919C201.048 47.1406 202.088 47.0454 203.062 46.9062L203.224 48.21C200.484 48.6934 197.438 48.7373 195.182 48.7373L194.991 47.3018ZM195.387 52.8242C197.145 52.2676 197.877 51.0664 197.892 49.8066V49.5723H199.723V49.8066C199.723 50.8101 200.162 51.8501 201.231 52.5459C202.301 51.8281 202.777 50.7734 202.784 49.8066V49.5723H204.615V49.8066C204.608 51.0957 205.355 52.2969 207.149 52.8242L206.227 54.1865C204.974 53.791 204.139 53.0146 203.67 52.0259C203.231 53.022 202.447 53.8789 201.246 54.3184C200.016 53.8789 199.239 53.0366 198.807 52.0479C198.331 53.0073 197.503 53.7764 196.295 54.1865L195.387 52.8242ZM197.423 43.9033C197.408 44.6357 198.053 45.0898 199.034 45.0898C199.994 45.0898 200.631 44.6357 200.631 43.9033C200.631 43.1562 199.986 42.7168 199.034 42.7168C198.053 42.7168 197.408 43.1562 197.423 43.9033ZM211.661 41.9551C213.463 41.9551 214.811 43.4346 215.074 45.8369H217.389V41.0176H219.234V54.377H217.389V47.3311H215.096C214.898 49.8945 213.521 51.4619 211.661 51.4619C209.64 51.4619 208.189 49.6309 208.204 46.7012C208.189 43.7935 209.64 41.9551 211.661 41.9551ZM209.991 46.7012C209.984 48.686 210.665 49.77 211.661 49.7627C212.665 49.77 213.331 48.686 213.331 46.7012C213.331 44.7236 212.665 43.6396 211.661 43.6396C210.665 43.6396 209.984 44.7236 209.991 46.7012ZM233.15 51.2568V52.7949H220.948V51.2568H223.673V47.9902C222.64 47.3677 222.018 46.4229 222.018 45.251C222.018 43.0903 224.127 41.6694 227.027 41.6621C229.913 41.6694 232.044 43.0903 232.052 45.251C232.044 46.4009 231.444 47.3311 230.44 47.9536V51.2568H233.15ZM223.863 45.251C223.863 46.5547 225.116 47.3604 227.027 47.3604C228.91 47.3604 230.199 46.5547 230.206 45.251C230.199 43.9106 228.91 43.1343 227.027 43.1416C225.116 43.1343 223.863 43.9106 223.863 45.251ZM225.519 51.2568H228.551V48.6641C228.075 48.7593 227.562 48.8105 227.027 48.8105C226.493 48.8105 225.987 48.7593 225.519 48.6714V51.2568ZM236.944 42.3945L236.754 49.8213H234.879L234.688 42.3945H236.944ZM234.601 51.9014C234.586 51.2275 235.143 50.6782 235.831 50.6855C236.483 50.6782 237.047 51.2275 237.047 51.9014C237.047 52.5825 236.483 53.1318 235.831 53.1318C235.143 53.1318 234.586 52.5825 234.601 51.9014Z" fill="#212121"/>
<defs>
<filter id="filter0_b_900_2691" x="23.5" y="18.5" width="42" height="42" filterUnits="userSpaceOnUse" color-interpolation-filters="sRGB">
<feFlood flood-opacity="0" result="BackgroundImageFix"/>
<feGaussianBlur in="BackgroundImageFix" stdDeviation="0.75"/>
<feComposite in2="SourceAlpha" operator="in" result="effect1_backgroundBlur_900_2691"/>
<feBlend mode="normal" in="SourceGraphic" in2="effect1_backgroundBlur_900_2691" result="shape"/>
</filter>
<filter id="filter1_b_900_2691" x="29.6001" y="31.7148" width="31.2729" height="15.2852" filterUnits="userSpaceOnUse" color-interpolation-filters="sRGB">
<feFlood flood-opacity="0" result="BackgroundImageFix"/>
<feGaussianBlur in="BackgroundImageFix" stdDeviation="2"/>
<feComposite in2="SourceAlpha" operator="in" result="effect1_backgroundBlur_900_2691"/>
<feBlend mode="normal" in="SourceGraphic" in2="effect1_backgroundBlur_900_2691" result="shape"/>
</filter>
<linearGradient id="paint0_linear_900_2691" x1="56.5089" y1="27.472" x2="26.5871" y2="59.9013" gradientUnits="userSpaceOnUse">
<stop stop-color="#38AAEA"/>
<stop offset="1" stop-color="#92C4FF"/>
</linearGradient>
</defs>
</svg>
