<svg width="48" height="48" viewBox="0 0 48 48" fill="none" xmlns="http://www.w3.org/2000/svg">
<g filter="url(#filter0_b_502_4792)">
<path d="M24 4C20.2148 4.00031 16.5075 5.07467 13.3086 7.09825C10.1098 9.12184 7.55078 12.0116 5.92898 15.4317C4.30718 18.8518 3.68914 22.6619 4.14667 26.4193C4.6042 30.1768 6.11852 33.7272 8.51369 36.6582L4.58601 40.586C4.3063 40.8657 4.11581 41.222 4.03862 41.6099C3.96144 41.9979 4.00103 42.4 4.15238 42.7654C4.30374 43.1309 4.56006 43.4432 4.88894 43.663C5.21781 43.8827 5.60447 44 6.00001 44H24C29.3043 44 34.3914 41.8929 38.1421 38.1421C41.8929 34.3914 44 29.3043 44 24C44 18.6957 41.8929 13.6086 38.1421 9.85786C34.3914 6.10714 29.3043 4 24 4Z" fill="url(#paint0_linear_502_4792)"/>
</g>
<g filter="url(#filter1_b_502_4792)">
<path d="M14.49 19.715C14.5633 19.715 14.625 19.7183 14.675 19.725C14.725 19.7317 14.77 19.745 14.81 19.765C14.85 19.7817 14.8883 19.8067 14.925 19.84C14.9616 19.8733 15.0033 19.9183 15.05 19.975L18.51 24.35C18.4966 24.21 18.4866 24.075 18.48 23.945C18.4733 23.8117 18.47 23.6867 18.47 23.57V19.715H19.96V27H19.08C18.95 27 18.84 26.98 18.75 26.94C18.66 26.9 18.5733 26.8267 18.49 26.72L15.055 22.38C15.065 22.5067 15.0733 22.6317 15.08 22.755C15.0866 22.875 15.09 22.9883 15.09 23.095V27H13.6V19.715H14.49Z" fill="white" fill-opacity="0.8"/>
<path d="M25.8486 19.715V21.015H22.8586V22.715H25.1486V23.965H22.8586V25.7H25.8486V27H21.1586V19.715H25.8486Z" fill="white" fill-opacity="0.8"/>
<path d="M26.2629 19.715H27.6829C27.8295 19.715 27.9512 19.7483 28.0479 19.815C28.1479 19.8817 28.2129 19.97 28.2429 20.08L29.2429 23.88C29.2762 24.0033 29.3095 24.135 29.3429 24.275C29.3762 24.415 29.4012 24.5617 29.4179 24.715C29.4512 24.5583 29.4879 24.4117 29.5279 24.275C29.5679 24.135 29.6062 24.0033 29.6429 23.88L30.8229 20.08C30.8529 19.9867 30.9162 19.9033 31.0129 19.83C31.1129 19.7533 31.2329 19.715 31.3729 19.715H31.8729C32.0195 19.715 32.1395 19.7483 32.2329 19.815C32.3295 19.8783 32.3962 19.9667 32.4329 20.08L33.6029 23.88C33.6395 23.9967 33.6779 24.1217 33.7179 24.255C33.7579 24.385 33.7929 24.525 33.8229 24.675C33.8495 24.5283 33.8762 24.3883 33.9029 24.255C33.9329 24.1217 33.9629 23.9967 33.9929 23.88L34.9929 20.08C35.0195 19.9833 35.0829 19.8983 35.1829 19.825C35.2829 19.7517 35.4029 19.715 35.5429 19.715H36.8729L34.6229 27H33.0929L31.7229 22.485C31.6995 22.415 31.6745 22.3383 31.6479 22.255C31.6245 22.1717 31.6012 22.0833 31.5779 21.99C31.5545 22.0833 31.5295 22.1717 31.5029 22.255C31.4795 22.3383 31.4562 22.415 31.4329 22.485L30.0429 27H28.5129L26.2629 19.715Z" fill="white" fill-opacity="0.8"/>
</g>
<defs>
<filter id="filter0_b_502_4792" x="2.46154" y="2.46154" width="43.0769" height="43.0769" filterUnits="userSpaceOnUse" color-interpolation-filters="sRGB">
<feFlood flood-opacity="0" result="BackgroundImageFix"/>
<feGaussianBlur in="BackgroundImageFix" stdDeviation="0.769231"/>
<feComposite in2="SourceAlpha" operator="in" result="effect1_backgroundBlur_502_4792"/>
<feBlend mode="normal" in="SourceGraphic" in2="effect1_backgroundBlur_502_4792" result="shape"/>
</filter>
<filter id="filter1_b_502_4792" x="9.59998" y="15.715" width="31.2729" height="15.285" filterUnits="userSpaceOnUse" color-interpolation-filters="sRGB">
<feFlood flood-opacity="0" result="BackgroundImageFix"/>
<feGaussianBlur in="BackgroundImageFix" stdDeviation="2"/>
<feComposite in2="SourceAlpha" operator="in" result="effect1_backgroundBlur_502_4792"/>
<feBlend mode="normal" in="SourceGraphic" in2="effect1_backgroundBlur_502_4792" result="shape"/>
</filter>
<linearGradient id="paint0_linear_502_4792" x1="36.3168" y1="11.6636" x2="5.6278" y2="44.9244" gradientUnits="userSpaceOnUse">
<stop stop-color="#38AAEA"/>
<stop offset="1" stop-color="#92C4FF"/>
</linearGradient>
</defs>
</svg>
