<svg width="44" height="44" viewBox="0 0 44 44" fill="none" xmlns="http://www.w3.org/2000/svg">
<rect width="44" height="44" rx="16" fill="#ECEBED"/>
<path d="M25.5455 20.9254C25.9195 20.261 26.2313 19.6615 26.4236 19.2052C27.3573 16.9895 26.434 14.4408 24.1769 13.4011C21.9199 12.3615 19.6534 13.4395 18.6587 15.5209C16.7566 14.2157 14.2192 14.4074 12.8199 16.4442C11.4206 18.4811 11.8598 21.142 13.7763 22.594C14.6461 23.253 16.3664 24.2242 17.986 25.0884M26.2972 22.7499C25.8751 20.482 23.9454 18.8233 21.5156 19.2742C19.0859 19.725 17.5149 21.9171 17.8433 24.299C18.1072 26.2127 19.5639 30.7027 20.1264 32.394C20.2032 32.6248 20.2415 32.7402 20.3175 32.8206C20.3837 32.8907 20.4717 32.9416 20.5655 32.9638C20.6732 32.9894 20.7923 32.9649 21.0306 32.916C22.7765 32.5575 27.3933 31.574 29.1826 30.8457C31.4096 29.9392 32.5589 27.4841 31.6981 25.153C30.8372 22.8219 28.4723 21.9815 26.2972 22.7499Z" stroke="#434343" stroke-width="1.5" stroke-linecap="round" stroke-linejoin="round"/>
</svg>
