<svg width="44" height="44" viewBox="0 0 44 44" fill="none" xmlns="http://www.w3.org/2000/svg">
<rect width="44" height="44" rx="16" fill="#ECEBED"/>
<mask id="path-2-inside-1_46_3454" fill="white">
<path fill-rule="evenodd" clip-rule="evenodd" d="M19.7026 13C14.8349 13 10.8888 16.9461 10.8888 21.8138C10.8888 26.6815 14.8349 30.6276 19.7026 30.6276H24.2974C24.3603 30.6276 24.4231 30.6269 24.4857 30.6256L24.9129 32.6965C25.007 33.1527 25.6143 33.2521 25.8383 32.8479L27.3745 30.0755C30.7249 28.8272 33.1112 25.5992 33.1112 21.8138C33.1112 16.9461 29.1651 13 24.2974 13H19.7026Z"/>
</mask>
<path d="M24.4857 30.6256L25.9547 30.3226L25.7025 29.0998L24.4542 29.126L24.4857 30.6256ZM24.9129 32.6965L26.382 32.3934L24.9129 32.6965ZM25.8383 32.8479L27.1504 33.5749L27.1504 33.5749L25.8383 32.8479ZM27.3745 30.0755L26.8508 28.6699L26.3312 28.8635L26.0625 29.3485L27.3745 30.0755ZM12.3888 21.8138C12.3888 17.7745 15.6633 14.5 19.7026 14.5V11.5C14.0065 11.5 9.38884 16.1176 9.38884 21.8138H12.3888ZM19.7026 29.1276C15.6633 29.1276 12.3888 25.8531 12.3888 21.8138H9.38884C9.38884 27.51 14.0065 32.1276 19.7026 32.1276V29.1276ZM24.2974 29.1276H19.7026V32.1276H24.2974V29.1276ZM24.4542 29.126C24.4021 29.1271 24.3498 29.1276 24.2974 29.1276V32.1276C24.3708 32.1276 24.444 32.1268 24.5171 32.1253L24.4542 29.126ZM26.382 32.3934L25.9547 30.3226L23.0166 30.9287L23.4438 32.9996L26.382 32.3934ZM24.5263 32.1209C25.0073 31.2529 26.2075 31.5478 26.382 32.3934L23.4438 32.9996C23.8065 34.7577 26.2214 35.2513 27.1504 33.5749L24.5263 32.1209ZM26.0625 29.3485L24.5263 32.1209L27.1504 33.5749L28.6866 30.8026L26.0625 29.3485ZM31.6112 21.8138C31.6112 24.9526 29.6333 27.6332 26.8508 28.6699L27.8983 31.4811C31.8165 30.0211 34.6112 26.2457 34.6112 21.8138H31.6112ZM24.2974 14.5C28.3367 14.5 31.6112 17.7745 31.6112 21.8138H34.6112C34.6112 16.1176 29.9935 11.5 24.2974 11.5V14.5ZM19.7026 14.5H24.2974V11.5H19.7026V14.5Z" fill="#434343" mask="url(#path-2-inside-1_46_3454)"/>
<line x1="22.2209" y1="17.407" x2="22.2209" y2="25.1191" stroke="#434343" stroke-width="1.5"/>
<line x1="25.7037" y1="21.4622" x2="18.2963" y2="21.4622" stroke="#434343" stroke-width="1.5"/>
</svg>
