<svg width="100" height="122" viewBox="0 0 100 122" fill="none" xmlns="http://www.w3.org/2000/svg">
<g clip-path="url(#clip0_175_3622)">
<path d="M14.7282 45.8282C10.2402 45.8282 6.63717 43.9951 3.9823 40.3288C1.32743 36.6626 0 31.2896 0 24.2415C0 17.1935 1.32743 11.7889 3.9823 8.15426C6.63717 4.488 10.2086 2.65487 14.7282 2.65487C17.3515 2.65487 19.6587 3.28698 21.6182 4.55121C23.5777 5.81544 25.2528 7.64857 26.5487 10.0822H36.0619V1.07458H44.153V55.1203H36.0619V38.0532H26.7067C25.4109 40.6133 23.7674 42.5728 21.7446 43.8687C19.7219 45.1645 17.3831 45.8282 14.7282 45.8282ZM14.7282 9.5133C12.6422 9.5133 10.9987 10.7143 9.82933 13.1163C8.65992 15.5184 8.09102 19.2162 8.09102 24.2415C8.09102 29.2668 8.65992 32.9647 9.82933 35.3667C10.9987 37.7688 12.6106 38.9698 14.7282 38.9698C16.8458 38.9698 18.4576 37.7688 19.6271 35.3667C20.7965 32.9647 21.3654 29.2668 21.3654 24.2415C21.3654 19.2162 20.7965 15.5184 19.6271 13.1163C18.4576 10.7143 16.8458 9.5133 14.7282 9.5133ZM29.4564 24.2415C29.4564 25.5374 29.3932 26.77 29.2984 27.9394C29.2035 29.1404 29.0455 30.2466 28.8559 31.2896H36.0936V16.8142H28.7927C29.2351 19.153 29.4564 21.6183 29.4564 24.2415Z" fill="#100B2F"/>
<path d="M51.0114 11.4096V4.77246H60.3666V0H68.4576V4.77246H77.2124V11.4096H51.043H51.0114ZM64.1593 13.0531C65.9608 13.0531 67.6043 13.306 69.0897 13.8117C70.5752 14.3174 71.8394 15.0127 72.8824 15.9293C73.9254 16.8458 74.7471 17.9204 75.316 19.153C75.8849 20.3857 76.201 21.7763 76.201 23.325C76.201 24.8737 75.9165 26.2327 75.316 27.4969C74.7471 28.7296 73.9254 29.8041 72.8824 30.7207C71.8394 31.6373 70.5752 32.3326 69.0897 32.8383C67.6043 33.344 65.9608 33.5968 64.1593 33.5968C62.3577 33.5968 60.7143 33.344 59.2288 32.8383C57.7433 32.3326 56.4791 31.6373 55.4361 30.7207C54.3932 29.8041 53.5714 28.7296 53.0025 27.4969C52.4336 26.2643 52.1175 24.8737 52.1175 23.325C52.1175 21.7763 52.402 20.4173 53.0025 19.153C53.5714 17.9204 54.3932 16.8458 55.4361 15.9293C56.4791 15.0127 57.7433 14.3174 59.2288 13.8117C60.7143 13.306 62.3577 13.0531 64.1593 13.0531ZM79.1087 56.6058C76.0114 56.6058 73.1985 56.3845 70.7016 55.9104C68.2048 55.4364 66.0556 54.7726 64.2857 53.8877C62.5158 53.0027 61.1567 51.8965 60.177 50.6007C59.1972 49.3049 58.7231 47.7878 58.7231 46.1127C58.7231 44.4376 59.1972 42.8573 60.177 41.5615C61.1567 40.2656 62.5158 39.1594 64.2857 38.2745C66.0556 37.3895 68.2048 36.7258 70.7016 36.2517C73.2301 35.7776 76.0114 35.5564 79.1087 35.5564C82.206 35.5564 85.0189 35.7776 87.5158 36.2517C90.0442 36.7258 92.1618 37.3895 93.9317 38.2745C95.7016 39.1594 97.0607 40.2656 98.0404 41.5615C99.0202 42.8573 99.4943 44.3744 99.4943 46.1127C99.4943 47.851 99.0202 49.3049 98.0404 50.6007C97.0607 51.8965 95.7016 53.0027 93.9317 53.8877C92.1618 54.7726 90.0126 55.4364 87.5158 55.9104C85.0189 56.3845 82.206 56.6058 79.1087 56.6058ZM64.1593 27.1809C65.5499 27.1809 66.6245 26.8332 67.3198 26.1379C68.0151 25.4426 68.3628 24.4944 68.3628 23.325C68.3628 22.1556 68.0151 21.239 67.3198 20.5121C66.6245 19.8168 65.5499 19.4691 64.1593 19.4691C62.7686 19.4691 61.694 19.8168 60.9987 20.5121C60.3034 21.2074 59.9557 22.1556 59.9557 23.325C59.9557 24.4944 60.3034 25.411 60.9987 26.1379C61.694 26.8648 62.7686 27.1809 64.1593 27.1809ZM79.1087 42.1936C74.9684 42.1936 71.9342 42.5096 69.9747 43.205C68.0151 43.8687 67.0354 44.8484 67.0354 46.1443C67.0354 47.4401 68.0151 48.3567 69.9747 49.0204C71.9342 49.6841 74.9684 50.0002 79.1087 50.0002C83.249 50.0002 86.2832 49.6841 88.2427 49.0204C90.2023 48.3567 91.182 47.4085 91.182 46.1443C91.182 44.8801 90.2023 43.8687 88.2427 43.205C86.2832 42.5412 83.249 42.1936 79.1087 42.1936ZM90.5815 35.6828V22.0608H87.0733V33.2808H79.3615V1.6751H87.0733V15.0127H90.5815V1.07459H98.4197V35.6196H90.5815V35.6828Z" fill="#100B2F"/>
<path d="M4.07703 76.8334V69.9434H34.9557V76.8334H4.07703ZM39.3488 121.145V67.0989H47.4399V85.9043H55.0252V92.8891H47.4399V121.113H39.3488V121.145Z" fill="#100B2F"/>
<path d="M65.3918 86.726H83.5966V93.4896H65.3918V104.394H70.6383C73.8937 104.394 77.0859 104.33 80.1832 104.204C83.3122 104.078 86.5043 103.761 89.7913 103.224V109.861C86.7256 110.43 83.5334 110.81 80.1832 110.968C76.833 111.126 73.6409 111.252 70.6383 111.252H57.3008V69.5641H84.3235V76.4542H65.3918V86.6944V86.726ZM91.9405 121.176V67.1305H100.032V121.176H91.9405Z" fill="#100B2F"/>
<path d="M4.32989 118.142C10.2085 116.467 14.3805 110.936 16.8457 105.626C18.3944 102.308 19.2477 98.8942 19.5006 95.2595C19.7534 91.9093 19.7218 87.9902 18.6472 84.7664C17.5726 81.5426 14.3805 78.5401 10.651 79.3935C7.2376 80.1836 5.62571 83.5338 4.77236 86.5995C2.87603 93.2367 3.60296 100.411 6.47906 106.669C7.61686 109.071 9.19714 111.031 10.9987 112.99C12.5473 114.697 14.1276 116.53 16.0555 117.826C19.4373 120.102 22.6295 114.602 19.2477 112.358C18.9 112.137 19.7534 112.832 19.2161 112.327C18.9949 112.105 18.742 111.884 18.4892 111.663C17.8571 111.062 17.225 110.43 16.6244 109.767C15.5183 108.565 14.4121 107.364 13.3691 106.1C13.2427 105.942 13.5903 106.48 13.2743 105.974C13.0214 105.531 12.7686 105.12 12.5157 104.678C11.9152 103.572 11.4411 102.434 11.0619 101.201C10.3349 98.8626 9.95568 96.5237 9.98728 94.0901C10.0189 91.6565 10.3665 89.0648 11.3147 86.7892C11.4727 86.4099 11.6624 86.0939 11.8836 85.7462C12.4209 84.8928 12.0732 85.7462 11.9152 85.5882C12.2945 85.9674 12.5473 86.3783 12.7054 86.9472C14.0012 91.5932 13.4639 97.5351 11.5992 101.96C9.95568 105.847 6.98475 110.841 2.65479 112.042C-1.2643 113.148 0.410796 119.248 4.32989 118.142Z" fill="#8638EA"/>
<path d="M19.8166 118.11C25.6952 116.435 29.8671 110.904 32.3324 105.595C33.8811 102.276 34.7344 98.8625 34.9872 95.2279C35.2401 91.8777 35.2085 87.9586 34.1339 84.7348C33.0593 81.511 29.8672 78.5085 26.1377 79.3618C22.7243 80.152 21.1124 83.5022 20.2591 86.5679C18.3627 93.2051 19.0897 100.38 21.9658 106.638C23.1036 109.04 24.6838 110.999 26.4854 112.959C28.034 114.665 29.6143 116.499 31.5422 117.794C34.924 120.07 38.1162 114.571 34.7344 112.327C34.3867 112.105 35.2401 112.801 34.7028 112.295C34.4816 112.074 34.2287 111.852 33.9759 111.631C33.3438 111.031 32.7116 110.399 32.1111 109.735C31.0049 108.534 29.8988 107.333 28.8558 106.069C28.7293 105.911 29.077 106.448 28.761 105.942C28.5081 105.5 28.2553 105.089 28.0024 104.646C27.4019 103.54 26.9278 102.402 26.5486 101.17C25.8216 98.8309 25.4424 96.4921 25.474 94.0585C25.5056 91.6248 25.8532 89.0332 26.8014 86.7576C26.9594 86.3783 27.1491 86.0622 27.3703 85.7146C27.9076 84.8612 27.5599 85.7146 27.4019 85.5566C27.7812 85.9358 28.034 86.3467 28.1921 86.9156C29.4879 91.5616 28.9506 97.5035 27.0859 101.928C25.4424 105.816 22.4714 110.809 18.1415 112.01C14.2224 113.117 15.8975 119.217 19.8166 118.11Z" fill="#8638EA"/>
</g>
<defs>
<clipPath id="clip0_175_3622">
<rect width="100" height="121.176" fill="white"/>
</clipPath>
</defs>
</svg>
