<svg width="16" height="16" viewBox="0 0 16 16" fill="none" xmlns="http://www.w3.org/2000/svg">
<path d="M10.6663 13.9998V13.1998C10.6663 12.0797 10.6663 11.5197 10.4484 11.0919C10.2566 10.7155 9.95065 10.4096 9.57432 10.2178C9.1465 9.99984 8.58645 9.99984 7.46634 9.99984H4.53301C3.4129 9.99984 2.85285 9.99984 2.42503 10.2178C2.0487 10.4096 1.74274 10.7155 1.55099 11.0919C1.33301 11.5197 1.33301 12.0797 1.33301 13.1998V13.9998M10.6663 3.99984L11.9997 5.33317L14.6663 2.6665M8.33301 4.99984C8.33301 6.2885 7.28834 7.33317 5.99967 7.33317C4.71101 7.33317 3.66634 6.2885 3.66634 4.99984C3.66634 3.71117 4.71101 2.6665 5.99967 2.6665C7.28834 2.6665 8.33301 3.71117 8.33301 4.99984Z" stroke="black" stroke-width="1.33333" stroke-linecap="round" stroke-linejoin="round"/>
</svg>
